# Blender v2.66 (sub 1) OBJ File: 'burgerwin.blend'
# www.blender.org
mtllib burger3.mtl
o Cylinder.001
v 0.000000 0.168858 -0.929165
v 0.000000 0.342285 -0.929165
v 0.355576 0.168858 -0.858436
v 0.355576 0.342285 -0.858436
v 0.657019 0.168858 -0.657019
v 0.657019 0.342285 -0.657019
v 0.858436 0.168858 -0.355576
v 0.858436 0.342285 -0.355576
v 0.929165 0.168858 0.000000
v 0.929165 0.342285 0.000000
v 0.858436 0.168858 0.355576
v 0.858436 0.342285 0.355576
v 0.657019 0.168858 0.657019
v 0.657019 0.342285 0.657019
v 0.355576 0.168858 0.858436
v 0.355576 0.342285 0.858436
v 0.000000 0.168858 0.929165
v 0.000000 0.342285 0.929165
v -0.355576 0.168858 0.858436
v -0.355576 0.342285 0.858436
v -0.657018 0.168858 0.657019
v -0.657018 0.342285 0.657019
v -0.858436 0.168858 0.355576
v -0.858436 0.342285 0.355576
v -0.929165 0.168858 -0.000000
v -0.929165 0.342285 -0.000000
v -0.858436 0.168858 -0.355576
v -0.858436 0.342285 -0.355576
v -0.657018 0.168858 -0.657019
v -0.657018 0.342285 -0.657019
v -0.355575 0.168858 -0.858436
v -0.355575 0.342285 -0.858436
v 0.000000 -0.163116 -1.000000
v 0.000000 0.163116 -1.000000
v 0.382683 -0.163116 -0.923880
v 0.382683 0.163116 -0.923880
v 0.707107 -0.163116 -0.707107
v 0.707107 0.163116 -0.707107
v 0.923880 -0.163116 -0.382683
v 0.923880 0.163116 -0.382683
v 1.000000 -0.163116 0.000000
v 1.000000 0.163116 0.000000
v 0.923880 -0.163116 0.382684
v 0.923880 0.163116 0.382684
v 0.707107 -0.163116 0.707107
v 0.707107 0.163116 0.707107
v 0.382683 -0.163116 0.923880
v 0.382683 0.163116 0.923880
v 0.000000 -0.163116 1.000000
v 0.000000 0.163116 1.000000
v -0.382683 -0.163116 0.923880
v -0.382683 0.163116 0.923880
v -0.707107 -0.163116 0.707107
v -0.707107 0.163116 0.707107
v -0.923880 -0.163116 0.382684
v -0.923880 0.163116 0.382684
v -1.000000 -0.163116 -0.000000
v -1.000000 0.163116 -0.000000
v -0.923879 -0.163116 -0.382684
v -0.923879 0.163116 -0.382684
v -0.707107 -0.163116 -0.707107
v -0.707107 0.163116 -0.707107
v -0.382683 -0.163116 -0.923880
v -0.382683 0.163116 -0.923880
v 0.000000 0.354838 -1.000000
v 0.000000 0.588767 -1.000000
v 0.382683 0.354838 -0.923880
v 0.382683 0.588767 -0.923880
v 0.707107 0.354838 -0.707107
v 0.707107 0.588767 -0.707107
v 0.923880 0.354838 -0.382683
v 0.923880 0.588767 -0.382683
v 1.000000 0.354838 0.000000
v 1.000000 0.588767 0.000000
v 0.923880 0.354838 0.382684
v 0.923880 0.588767 0.382684
v 0.707107 0.354838 0.707107
v 0.707107 0.588767 0.707107
v 0.382683 0.354838 0.923880
v 0.382683 0.588767 0.923880
v 0.000000 0.354838 1.000000
v 0.000000 0.588767 1.000000
v -0.382683 0.354838 0.923880
v -0.382683 0.588767 0.923880
v -0.707107 0.354838 0.707107
v -0.707107 0.588767 0.707107
v -0.923880 0.354838 0.382684
v -0.923880 0.588767 0.382684
v -1.000000 0.354838 -0.000000
v -1.000000 0.588767 -0.000000
v -0.923879 0.354838 -0.382684
v -0.923879 0.588767 -0.382684
v -0.707107 0.354838 -0.707107
v -0.707107 0.588767 -0.707107
v -0.382683 0.354838 -0.923880
v -0.382683 0.588767 -0.923880
v 0.129300 0.439735 0.617555
v 0.077632 0.439735 0.077475
v 0.617712 0.439735 0.077475
v 0.669380 0.439735 0.617555
v 0.129300 0.766305 0.617555
v 0.077632 0.766305 0.077475
v 0.617712 0.766305 0.077475
v 0.669380 0.766305 0.617555
v 0.617712 0.766305 -0.075830
v 0.556726 0.766305 -0.615910
v 0.016646 0.766305 -0.615910
v 0.077632 0.766305 -0.075830
v 0.617712 0.439735 -0.075830
v 0.556726 0.439735 -0.615910
v 0.016646 0.439735 -0.615910
v 0.077632 0.439735 -0.075830
v -0.600560 0.439735 -0.075830
v -0.661545 0.439735 -0.615910
v -0.121465 0.439735 -0.615910
v -0.060480 0.439735 -0.075830
v -0.600560 0.766305 -0.075830
v -0.661545 0.766305 -0.615910
v -0.121465 0.766305 -0.615910
v -0.060480 0.766305 -0.075830
v -0.008812 0.766305 0.617555
v -0.060480 0.766305 0.077475
v -0.600560 0.766305 0.077475
v -0.548892 0.766305 0.617555
v -0.008812 0.439735 0.617555
v -0.060480 0.439735 0.077475
v -0.600560 0.439735 0.077475
v -0.548892 0.439735 0.617555
vn 0.000000 -0.665700 -0.746178
vn 0.000000 0.665700 -0.746178
vn 0.285531 0.665700 -0.689383
vn 0.285531 -0.665700 -0.689383
vn 0.527635 0.665700 -0.527635
vn 0.527635 -0.665700 -0.527635
vn 0.689383 0.665700 -0.285531
vn 0.689383 -0.665700 -0.285531
vn 0.746178 -0.665700 0.000000
vn 0.746178 0.665700 0.000000
vn 0.689383 0.665700 0.285531
vn 0.689383 -0.665700 0.285531
vn 0.527635 0.665700 0.527635
vn 0.527635 -0.665700 0.527635
vn 0.285531 -0.665700 0.689383
vn 0.285531 0.665700 0.689383
vn 0.000000 0.665700 0.746178
vn 0.000000 -0.665700 0.746178
vn -0.285531 -0.665700 0.689383
vn -0.285531 0.665700 0.689383
vn -0.527635 0.665700 0.527635
vn -0.527635 -0.665700 0.527635
vn -0.689383 -0.665700 0.285531
vn -0.689383 0.665700 0.285531
vn -0.746178 0.665700 0.000000
vn -0.746178 -0.665700 0.000000
vn -0.689383 0.665700 -0.285531
vn -0.689383 -0.665700 -0.285531
vn -0.527635 0.665700 -0.527635
vn -0.285531 -0.665700 -0.689383
vn -0.285531 0.665700 -0.689383
vn -0.527635 -0.665700 -0.527635
vn 0.000000 0.000000 -1.000000
vn 0.382672 0.000000 -0.923856
vn 0.381909 -0.063570 -0.921995
vn 0.707083 0.000000 -0.707083
vn 0.921995 -0.063570 -0.381909
vn 0.921995 0.063570 -0.381909
vn 1.000000 0.000000 0.000000
vn 0.923856 0.000000 0.382672
vn 0.921995 0.063570 0.381909
vn 0.707083 0.000000 0.707083
vn 0.382672 0.000000 0.923856
vn 0.000000 0.000000 0.999969
vn -0.382672 0.000000 0.923856
vn -0.707083 0.000000 0.707083
vn -0.923856 0.000000 0.382672
vn -1.000000 0.000000 0.000000
vn -0.999969 0.000000 0.000000
vn -0.923856 0.000000 -0.382672
vn -0.707083 0.000000 -0.707083
vn -0.382672 0.000000 -0.923856
vn -0.000000 1.000000 0.000000
vn 0.000000 0.000000 1.000000
vn 0.993685 0.000000 -0.112206
vn -0.993685 0.000000 0.112206
vn 0.995455 0.000000 -0.095232
vn -0.995455 0.000000 0.095232
usemtl bread
s 1
f 33//1 34//2 36//3
f 35//4 36//3 38//5
f 37//6 38//5 40//7
f 39//8 40//7 41//9
f 41//9 42//10 44//11
f 43//12 44//11 46//13
f 45//14 46//13 47//15
f 47//15 48//16 50//17
f 49//18 50//17 51//19
f 51//19 52//20 54//21
f 53//22 54//21 55//23
f 55//23 56//24 58//25
f 57//26 58//25 60//27
f 59//28 60//27 62//29
f 36//3 34//2 38//5
f 63//30 64//31 34//2
f 61//32 62//29 64//31
f 63//30 33//1 61//32
f 65//1 66//2 68//3
f 67//4 68//3 70//5
f 69//6 70//5 72//7
f 71//8 72//7 73//9
f 73//9 74//10 76//11
f 75//12 76//11 78//13
f 77//14 78//13 80//16
f 79//15 80//16 81//18
f 81//18 82//17 84//20
f 83//19 84//20 86//21
f 85//22 86//21 88//24
f 87//23 88//24 90//25
f 89//26 90//25 92//27
f 91//28 92//27 94//29
f 68//3 66//2 70//5
f 95//30 96//31 66//2
f 93//32 94//29 95//30
f 95//30 65//1 93//32
f 54//21 56//24 55//23
f 94//29 96//31 95//30
f 65//1 67//4 93//32
f 40//7 42//10 41//9
f 82//17 80//16 78//13
f 35//4 33//1 36//3
f 37//6 35//4 38//5
f 39//8 37//6 40//7
f 43//12 41//9 44//11
f 45//14 43//12 46//13
f 62//29 56//24 46//13
f 49//18 47//15 50//17
f 53//22 51//19 54//21
f 57//26 55//23 58//25
f 59//28 57//26 60//27
f 61//32 59//28 62//29
f 34//2 64//31 62//29
f 38//5 34//2 62//29
f 42//10 40//7 46//13
f 62//29 46//13 40//7
f 60//27 58//25 56//24
f 62//29 60//27 56//24
f 72//7 74//10 73//9
f 44//11 42//10 46//13
f 38//5 62//29 40//7
f 56//24 54//21 46//13
f 54//21 52//20 46//13
f 52//20 50//17 46//13
f 33//1 63//30 34//2
f 63//30 61//32 64//31
f 35//4 37//6 39//8
f 50//17 52//20 51//19
f 59//28 61//32 39//8
f 57//26 59//28 55//23
f 59//28 39//8 55//23
f 39//8 41//9 43//12
f 55//23 39//8 43//12
f 53//22 55//23 43//12
f 51//19 53//22 43//12
f 49//18 51//19 47//15
f 51//19 43//12 45//14
f 47//15 51//19 45//14
f 67//4 65//1 68//3
f 69//6 67//4 70//5
f 71//8 69//6 72//7
f 35//4 39//8 61//32
f 75//12 73//9 76//11
f 77//14 75//12 78//13
f 79//15 77//14 80//16
f 94//29 88//24 78//13
f 83//19 81//18 84//20
f 85//22 83//19 86//21
f 87//23 85//22 88//24
f 89//26 87//23 90//25
f 91//28 89//26 92//27
f 93//32 91//28 94//29
f 66//2 96//31 94//29
f 70//5 66//2 94//29
f 74//10 72//7 78//13
f 94//29 78//13 72//7
f 92//27 90//25 88//24
f 94//29 92//27 88//24
f 67//4 71//8 93//32
f 76//11 74//10 78//13
f 70//5 94//29 72//7
f 88//24 86//21 78//13
f 86//21 84//20 78//13
f 84//20 82//17 78//13
f 65//1 95//30 66//2
f 67//4 69//6 71//8
f 33//1 35//4 61//32
f 46//13 48//16 47//15
f 91//28 93//32 71//8
f 89//26 91//28 87//23
f 91//28 71//8 87//23
f 71//8 73//9 75//12
f 87//23 71//8 75//12
f 85//22 87//23 75//12
f 83//19 85//22 75//12
f 81//18 83//19 79//15
f 83//19 75//12 77//14
f 79//15 83//19 77//14
f 50//17 48//16 46//13
f 80//16 82//17 81//18
usemtl stake
f 1//33 2//33 4//34
f 3//35 4//34 5//6
f 5//6 6//36 7//37
f 7//37 8//38 10//10
f 9//39 10//10 11//40
f 11//40 12//41 13//42
f 13//42 14//42 16//43
f 15//43 16//43 18//44
f 17//44 18//44 20//45
f 19//45 20//45 21//46
f 21//46 22//46 23//47
f 23//47 24//47 26//48
f 25//49 26//48 28//50
f 27//50 28//50 29//51
f 31//52 32//52 2//33
f 29//51 30//51 32//52
f 3//35 1//33 4//34
f 9//39 7//37 10//10
f 15//43 13//42 16//43
f 17//44 15//43 18//44
f 19//45 17//44 20//45
f 20//45 22//46 21//46
f 25//49 23//47 26//48
f 27//50 25//49 28//50
f 12//41 14//42 13//42
f 10//10 8//38 12//41
f 22//46 24//47 23//47
f 1//33 31//52 2//33
f 31//52 29//51 32//52
f 4//34 6//36 5//6
f 5//6 7//37 3//35
f 10//10 12//41 11//40
f 28//50 30//51 29//51
f 6//36 8//38 7//37
usemtl Nauha
s off
f 105//53 106//53 108//53
f 105//54 108//54 112//54
f 106//55 105//55 109//55
f 107//33 106//33 110//33
f 108//56 107//56 112//56
f 106//53 107//53 108//53
f 109//54 105//54 112//54
f 110//55 106//55 109//55
f 111//33 107//33 110//33
f 107//56 111//56 112//56
usemtl KETCHUP
f 117//56 118//56 113//56
f 118//33 119//33 115//33
f 119//55 120//55 116//55
f 120//54 117//54 113//54
f 120//53 119//53 117//53
f 118//56 114//56 113//56
f 114//33 118//33 115//33
f 115//55 119//55 116//55
f 116//54 120//54 113//54
f 119//53 118//53 117//53
usemtl sin
f 121//53 122//53 124//53
f 121//54 124//54 128//54
f 122//57 121//57 125//57
f 123//33 122//33 127//33
f 124//58 123//58 128//58
f 122//53 123//53 124//53
f 125//54 121//54 128//54
f 126//57 122//57 125//57
f 122//33 126//33 127//33
f 123//58 127//58 128//58
usemtl kelt
f 101//58 102//58 97//58
f 102//33 103//33 98//33
f 103//57 104//57 100//57
f 104//54 101//54 97//54
f 104//53 103//53 101//53
f 102//58 98//58 97//58
f 103//33 99//33 98//33
f 99//57 103//57 100//57
f 100//54 104//54 97//54
f 103//53 102//53 101//53
