# Blender v2.66 (sub 1) OBJ File: 'coffee.blend'
# www.blender.org
mtllib coffee.mtl
o Cylinder
v 0.585526 0.114544 -0.495434
v 0.710012 0.114544 -0.192763
v 0.577115 0.152028 -0.138104
v 0.452629 0.152028 -0.440775
v 1.091208 2.210701 -0.703416
v 1.215694 2.210701 -0.400744
v 1.082797 2.248184 -0.346086
v 0.958311 2.248184 -0.648757
v 0.380374 -1.022881 0.924833
v 0.526682 1.780927 1.280561
v -0.002498 -1.022881 0.999997
v -0.003459 1.780927 1.384637
v -0.384990 -1.022881 0.922921
v -0.533073 1.780927 1.277914
v -0.708871 -1.022881 0.705338
v -0.981532 1.780927 0.976640
v -0.924833 -1.022881 0.380374
v -1.280561 1.780927 0.526682
v -0.999997 -1.022881 -0.002498
v -1.384637 1.780927 -0.003459
v -0.922921 -1.022881 -0.384990
v -1.277914 1.780927 -0.533073
v -0.705338 -1.022881 -0.708871
v -0.976640 1.780927 -0.981532
v -0.380374 -1.022881 -0.924833
v -0.526682 1.780927 -1.280561
v 0.002498 -1.022881 -0.999997
v 0.003459 1.780927 -1.384637
v 0.384990 -1.022881 -0.922921
v 0.533073 1.780927 -1.277914
v 0.708871 -1.022881 -0.705338
v 0.981532 1.780927 -0.976640
v 0.924833 -1.022881 -0.380374
v 1.280561 1.780927 -0.526682
v 0.999997 -1.022881 0.002498
v 1.384637 1.780927 0.003459
v 0.922921 -1.022881 0.384990
v 1.277914 1.780927 0.533074
v 0.705338 -1.022881 0.708871
v 0.976640 1.780927 0.981533
v 0.544342 1.864910 1.323499
v -0.003575 1.864910 1.431064
v -0.550947 1.864910 1.320763
v -1.014443 1.864910 1.009387
v -1.323499 1.864910 0.544342
v -1.431064 1.864910 -0.003575
v -1.320763 1.864910 -0.550947
v -1.009387 1.864910 -1.014443
v -0.544342 1.864910 -1.323499
v 0.003575 1.864910 -1.431064
v 0.550947 1.864910 -1.320763
v 1.014443 1.864910 -1.009387
v 1.323499 1.864910 -0.544342
v 1.431064 1.864910 0.003575
v 1.320763 1.864910 0.550948
v 1.009387 1.864910 1.014443
v 0.510724 1.926681 1.241763
v -0.003354 1.926681 1.342685
v -0.516922 1.926681 1.239196
v -0.951793 1.926681 0.947050
v -1.241763 1.926681 0.510724
v -1.342685 1.926681 -0.003354
v -1.239196 1.926681 -0.516922
v -0.947050 1.926681 -0.951793
v -0.510725 1.926681 -1.241763
v 0.003354 1.926681 -1.342685
v 0.516922 1.926681 -1.239196
v 0.951793 1.926681 -0.947050
v 1.241763 1.926681 -0.510724
v 1.342685 1.926681 0.003354
v 1.239195 1.926681 0.516923
v 0.947049 1.926681 0.951794
v 0.479639 1.675346 1.166183
v -0.003150 1.675346 1.260962
v -0.485460 1.675346 1.163772
v -0.893862 1.675346 0.889408
v -1.166183 1.675346 0.479639
v -1.260962 1.675346 -0.003150
v -1.163772 1.675346 -0.485460
v -0.889408 1.675346 -0.893862
v -0.479639 1.675346 -1.166183
v 0.003150 1.675346 -1.260962
v 0.485459 1.675346 -1.163772
v 0.893863 1.675346 -0.889408
v 1.166183 1.675346 -0.479639
v 1.260962 1.675346 0.003150
v 1.163772 1.675346 0.485460
v 0.889407 1.675346 0.893863
vt 0.000000 0.000000
vt 0.541176 0.106234
vt 0.501760 0.472230
vt 0.467037 0.455334
vt 0.516099 0.094031
vt 0.432812 0.434780
vt 0.491381 0.079187
vt 0.215685 -0.001940
vt 0.250571 0.653330
vt 0.187871 0.663328
vt 0.170403 0.005280
vt 0.124994 0.666664
vt 0.124992 0.007690
vt 0.062117 0.663330
vt 0.079582 0.005281
vt -0.000583 0.653333
vt 0.034300 -0.001939
vt 0.795919 0.079187
vt 0.854488 0.434782
vt 0.820261 0.455335
vt 0.771200 0.094031
vt 0.785539 0.472232
vt 0.746123 0.106233
vt 0.750417 0.485423
vt 0.720758 0.115760
vt 0.714995 0.494871
vt 0.695176 0.122584
vt 0.679372 0.500551
vt 0.669449 0.126686
vt 0.643649 0.502446
vt 0.643649 0.128055
vt 0.607926 0.500551
vt 0.617850 0.126686
vt 0.572303 0.494870
vt 0.592123 0.122584
vt 0.566541 0.115760
vt 0.536882 0.485422
vn 0.894888 -0.252404 -0.368059
vn 0.380374 -0.000000 0.924833
vn -0.894888 0.252404 0.368059
vn -0.380374 0.000000 -0.924833
vn 0.233432 0.967622 -0.096008
vn 0.360057 -0.322214 0.875484
vn 0.667714 -0.322214 0.671041
vn 0.689657 0.209540 0.693106
vn 0.371929 0.209540 0.904294
vn 0.265938 -0.714896 0.646657
vn -0.001740 -0.714896 0.699210
vn 0.493179 -0.714896 0.495651
vn 0.645314 -0.714896 0.269173
vn -0.269173 -0.714896 0.645314
vn 0.699210 -0.714896 0.001740
vn -0.495651 -0.714896 0.493179
vn 0.646657 -0.714896 -0.265938
vn -0.646657 -0.714896 0.265938
vn 0.495651 -0.714896 -0.493179
vn -0.699210 -0.714896 -0.001740
vn -0.645314 -0.714896 -0.269173
vn 0.269173 -0.714896 -0.645314
vn -0.493179 -0.714896 -0.495651
vn 0.001740 -0.714896 -0.699210
vn -0.265938 -0.714896 -0.646657
vn 0.977783 0.209540 0.002441
vn 0.904294 0.209540 -0.371929
vn -0.205481 0.974975 0.084506
vn -0.222175 0.974975 -0.000549
vn 0.873684 -0.322214 0.364452
vn 0.946654 -0.322214 0.002350
vn 0.902402 0.209540 0.376415
vn 0.875484 -0.322214 -0.360057
vn 0.671041 -0.322214 -0.667714
vn 0.693106 0.209540 -0.689657
vn 0.364452 -0.322214 -0.873684
vn 0.002350 -0.322214 -0.946654
vn 0.002441 0.209540 -0.977783
vn 0.376415 0.209540 -0.902402
vn -0.360057 -0.322214 -0.875484
vn -0.667714 -0.322214 -0.671041
vn -0.689657 0.209540 -0.693106
vn -0.371929 0.209540 -0.904294
vn -0.873684 -0.322214 -0.364452
vn -0.946654 -0.322214 -0.002350
vn -0.977783 0.209540 -0.002441
vn -0.902402 0.209540 -0.376415
vn -0.875484 -0.322214 0.360057
vn -0.671041 -0.322214 0.667714
vn -0.693106 0.209540 0.689657
vn -0.904294 0.209540 0.371929
vn -0.364452 -0.322214 0.873684
vn -0.002350 -0.322214 0.946654
vn -0.002441 0.209540 0.977783
vn -0.376415 0.209540 0.902402
vn 0.222175 0.974975 0.000549
vn 0.205481 0.974975 -0.084506
vn 0.584277 0.775140 -0.240303
vn 0.631764 0.775140 0.001556
vn 0.205054 0.974975 0.085513
vn 0.156713 0.974975 0.157476
vn -0.084506 0.974975 -0.205481
vn 0.000549 0.974975 -0.222175
vn -0.205054 0.974975 -0.085513
vn 0.084506 0.974975 0.205481
vn 0.085513 0.974975 -0.205054
vn -0.156713 0.974975 -0.157476
vn -0.000549 0.974975 0.222175
vn 0.157476 0.974975 -0.156713
vn -0.085513 0.974975 0.205054
vn -0.157476 0.974975 0.156713
vn -0.447829 0.775140 0.445601
vn -0.584277 0.775140 0.240303
vn 0.583087 0.775140 0.243202
vn -0.631764 0.775140 -0.001556
vn 0.445601 0.775140 0.447829
vn -0.240303 0.775140 -0.584277
vn 0.001556 0.775140 -0.631764
vn -0.583087 0.775140 -0.243202
vn 0.240303 0.775140 0.584277
vn 0.243202 0.775140 -0.583087
vn -0.445601 0.775140 -0.447829
vn -0.001556 0.775140 0.631764
vn 0.447829 0.775140 -0.445601
vn -0.243202 0.775140 0.583087
usemtl cup
s off
f 2/1/1 1/1/1 5/1/1
f 2/1/1 5/1/1 6/1/1
f 6/1/2 7/1/2 3/1/2
f 6/1/2 3/1/2 2/1/2
f 7/1/3 8/1/3 4/1/3
f 7/1/3 4/1/3 3/1/3
f 1/1/4 4/1/4 8/1/4
f 1/1/4 8/1/4 5/1/4
f 8/1/5 7/1/5 6/1/5
f 8/1/5 6/1/5 5/1/5
s 1
f 10/1/6 40/1/7 56/1/8
f 10/1/6 56/1/8 41/1/9
f 9/1/10 11/1/11 39/1/12
f 11/1/11 37/1/13 39/1/12
f 11/1/11 13/1/14 37/1/13
f 13/1/14 35/1/15 37/1/13
f 13/1/14 15/1/16 35/1/15
f 15/1/16 33/1/17 35/1/15
f 15/1/16 17/1/18 33/1/17
f 17/1/18 31/1/19 33/1/17
f 17/1/18 19/1/20 31/1/19
f 19/1/20 21/1/21 31/1/19
f 21/1/21 29/1/22 31/1/19
f 21/1/21 23/1/23 29/1/22
f 23/1/23 27/1/24 29/1/22
f 23/1/23 25/1/25 27/1/24
f 54/1/26 53/1/27 69/1/28
f 54/1/26 69/1/28 70/1/29
f 38/1/30 36/1/31 54/1/26
f 38/1/30 54/1/26 55/1/32
f 34/1/33 32/1/34 52/1/35
f 34/1/33 52/1/35 53/1/27
f 30/1/36 28/1/37 50/1/38
f 30/1/36 50/1/38 51/1/39
f 26/1/40 24/1/41 48/1/42
f 26/1/40 48/1/42 49/1/43
f 22/1/44 20/1/45 46/1/46
f 22/1/44 46/1/46 47/1/47
f 18/1/48 16/1/49 44/1/50
f 18/1/48 44/1/50 45/1/51
f 14/1/52 12/1/53 42/1/54
f 14/1/52 42/1/54 43/1/55
f 40/1/7 38/1/30 55/1/32
f 40/1/7 55/1/32 56/1/8
f 36/1/31 34/1/33 53/1/27
f 36/1/31 53/1/27 54/1/26
f 12/1/53 10/1/6 41/1/9
f 12/1/53 41/1/9 42/1/54
f 32/1/34 30/1/36 51/1/39
f 32/1/34 51/1/39 52/1/35
f 28/1/37 26/1/40 49/1/43
f 28/1/37 49/1/43 50/1/38
f 24/1/41 22/1/44 47/1/47
f 24/1/41 47/1/47 48/1/42
f 20/1/45 18/1/48 45/1/51
f 20/1/45 45/1/51 46/1/46
f 16/1/49 14/1/52 43/1/55
f 16/1/49 43/1/55 44/1/50
f 62/1/56 61/1/57 77/1/58
f 62/1/56 77/1/58 78/1/59
f 48/1/42 47/1/47 63/1/60
f 48/1/42 63/1/60 64/1/61
f 42/1/54 41/1/9 57/1/62
f 42/1/54 57/1/62 58/1/63
f 55/1/32 54/1/26 70/1/29
f 55/1/32 70/1/29 71/1/64
f 49/1/43 48/1/42 64/1/61
f 49/1/43 64/1/61 65/1/65
f 43/1/55 42/1/54 58/1/63
f 43/1/55 58/1/63 59/1/66
f 56/1/8 55/1/32 71/1/64
f 56/1/8 71/1/64 72/1/67
f 50/1/38 49/1/43 65/1/65
f 50/1/38 65/1/65 66/1/68
f 44/1/50 43/1/55 59/1/66
f 44/1/50 59/1/66 60/1/69
f 41/1/9 56/1/8 72/1/67
f 41/1/9 72/1/67 57/1/62
f 51/1/39 50/1/38 66/1/68
f 51/1/39 66/1/68 67/1/70
f 45/1/51 44/1/50 60/1/69
f 45/1/51 60/1/69 61/1/57
f 52/1/35 51/1/39 67/1/70
f 52/1/35 67/1/70 68/1/71
f 46/1/46 45/1/51 61/1/57
f 46/1/46 61/1/57 62/1/56
f 53/1/27 52/1/35 68/1/71
f 53/1/27 68/1/71 69/1/28
f 47/1/47 46/1/46 62/1/56
f 47/1/47 62/1/56 63/1/60
f 69/1/28 68/1/71 84/1/72
f 69/1/28 84/1/72 85/1/73
f 63/1/60 62/1/56 78/1/59
f 63/1/60 78/1/59 79/1/74
f 70/1/29 69/1/28 85/1/73
f 70/1/29 85/1/73 86/1/75
f 64/1/61 63/1/60 79/1/74
f 64/1/61 79/1/74 80/1/76
f 58/1/63 57/1/62 73/1/77
f 58/1/63 73/1/77 74/1/78
f 71/1/64 70/1/29 86/1/75
f 71/1/64 86/1/75 87/1/79
f 65/1/65 64/1/61 80/1/76
f 65/1/65 80/1/76 81/1/80
f 59/1/66 58/1/63 74/1/78
f 59/1/66 74/1/78 75/1/81
f 72/1/67 71/1/64 87/1/79
f 72/1/67 87/1/79 88/1/82
f 66/1/68 65/1/65 81/1/80
f 66/1/68 81/1/80 82/1/83
f 60/1/69 59/1/66 75/1/81
f 60/1/69 75/1/81 76/1/84
f 57/1/62 72/1/67 88/1/82
f 57/1/62 88/1/82 73/1/77
f 67/1/70 66/1/68 82/1/83
f 67/1/70 82/1/83 83/1/85
f 61/1/57 60/1/69 76/1/84
f 61/1/57 76/1/84 77/1/58
f 68/1/71 67/1/70 83/1/85
f 68/1/71 83/1/85 84/1/72
usemtl coffee
f 74/1/78 73/1/77 88/1/82
f 74/1/78 88/1/82 87/1/79
f 74/1/78 87/1/79 75/1/81
f 87/1/79 86/1/75 75/1/81
f 86/1/75 76/1/84 75/1/81
f 86/1/75 85/1/73 76/1/84
f 85/1/73 77/1/58 76/1/84
f 85/1/73 84/1/72 77/1/58
f 84/1/72 78/1/59 77/1/58
f 84/1/72 79/1/74 78/1/59
f 84/1/72 83/1/85 79/1/74
f 83/1/85 80/1/76 79/1/74
f 83/1/85 82/1/83 80/1/76
f 82/1/83 81/1/80 80/1/76
usemtl cup2
f 9/2/10 10/3/6 12/4/53
f 9/2/10 12/4/53 11/5/11
f 11/5/11 12/4/53 14/6/52
f 11/5/11 14/6/52 13/7/14
f 13/8/14 14/9/52 16/10/49
f 13/8/14 16/10/49 15/11/16
f 15/11/16 16/10/49 18/12/48
f 15/11/16 18/12/48 17/13/18
f 17/13/18 18/12/48 20/14/45
f 17/13/18 20/14/45 19/15/20
f 19/15/20 20/14/45 22/16/44
f 19/15/20 22/16/44 21/17/21
f 21/18/21 22/19/44 24/20/41
f 21/18/21 24/20/41 23/21/23
f 23/21/23 24/20/41 26/22/40
f 23/21/23 26/22/40 25/23/25
f 25/23/25 26/22/40 28/24/37
f 25/23/25 28/24/37 27/25/24
f 27/25/24 28/24/37 30/26/36
f 27/25/24 30/26/36 29/27/22
f 29/27/22 30/26/36 32/28/34
f 29/27/22 32/28/34 31/29/19
f 31/29/19 32/28/34 34/30/33
f 31/29/19 34/30/33 33/31/17
f 33/31/17 34/30/33 36/32/31
f 33/31/17 36/32/31 35/33/15
f 35/33/15 36/32/31 38/34/30
f 35/33/15 38/34/30 37/35/13
f 39/36/12 40/37/7 10/3/6
f 39/36/12 10/3/6 9/2/10
f 37/35/13 38/34/30 40/37/7
f 37/35/13 40/37/7 39/36/12
