# Blender v2.66 (sub 1) OBJ File: 'Pc3.blend'
# www.blender.org
mtllib cylinder.mtl
o Pc3_Cube.563
v 6.110104 0.044633 -6.110104
v 6.110104 0.044633 6.110104
v -6.110105 0.044633 6.110103
v -6.110102 0.044633 -6.110106
v 6.110107 10.998251 2.223496
v 6.110100 10.998251 6.110108
v -6.110106 10.998251 6.110102
v -6.110104 10.998251 2.223493
v -6.110104 16.250565 2.223493
v 6.110107 16.250565 2.223496
v 6.110107 16.250565 -6.386171
v -6.110104 16.250565 -6.386174
v 0.000000 16.831131 -3.324217
v 2.265470 16.831131 -2.842677
v 4.139220 16.831131 -1.481318
v 5.297262 16.831131 0.524469
v 5.539358 16.831131 2.827863
v 4.823649 16.831131 5.030589
v 3.273887 16.831131 6.751774
v 1.158041 16.831131 7.693809
v -1.158042 16.831131 7.693809
v -3.273888 16.831131 6.751773
v -4.823649 16.831131 5.030588
v -5.539358 16.831131 2.827863
v -5.297261 16.831131 0.524468
v -4.139220 16.831131 -1.481318
v -2.265470 16.831131 -2.842677
v 0.000001 44.104439 -3.324217
v 2.265471 44.104439 -2.842677
v 4.139221 44.104439 -1.481317
v 5.297262 44.104439 0.524470
v 5.539357 44.104439 2.827864
v 4.823648 44.104439 5.030589
v 3.273889 44.104439 6.751772
v 1.158045 44.104439 7.693808
v -1.158035 44.104439 7.693810
v -3.273880 44.104439 6.751779
v -4.823644 44.104439 5.030598
v -5.539356 44.104439 2.827877
v -5.297267 44.104439 0.524485
v -4.139233 44.104439 -1.481303
v -2.265491 44.104439 -2.842667
v 0.000000 16.831131 2.245653
v 0.000000 45.119854 2.245653
vn -0.000000 -1.000000 0.000000
vn 0.000000 -0.663137 -0.748466
vn 0.000000 0.601672 -0.798700
vn 0.324870 0.601672 -0.729667
vn 0.304422 -0.663137 -0.683737
vn 0.593554 0.601672 -0.534440
vn 0.556200 -0.663137 -0.500809
vn 0.759636 0.601672 -0.246803
vn 0.711814 -0.663137 -0.231269
vn 0.794336 0.601672 0.083468
vn 0.744346 -0.663137 0.078219
vn 0.691702 0.601672 0.399335
vn 0.648183 -0.663137 0.374218
vn 0.469466 0.601672 0.646168
vn 0.439924 -0.663137 0.605518
vn 0.166051 0.601672 0.781274
vn 0.155614 -0.663137 0.732109
vn -0.166051 0.601672 0.781274
vn -0.155614 -0.663137 0.732109
vn -0.439924 -0.663137 0.605518
vn -0.469466 0.601672 0.646168
vn -0.648183 -0.663137 0.374218
vn -0.691702 0.601672 0.399365
vn -0.744346 -0.663137 0.078219
vn -0.794336 0.601672 0.083468
vn -0.711814 -0.663137 -0.231269
vn -0.759636 0.601672 -0.246803
vn -0.556200 -0.663137 -0.500809
vn -0.593554 0.601672 -0.534440
vn -0.304422 -0.663137 -0.683737
vn -0.324870 0.601672 -0.729667
vn 0.038094 0.983071 -0.179219
vn 0.107696 0.983072 -0.148230
vn 0.158675 0.983071 -0.091611
vn 0.182219 0.983072 -0.019152
vn 0.174255 0.983071 0.056619
vn 0.136161 0.983071 0.122600
vn 0.074523 0.983071 0.167382
vn 0.000000 0.983071 0.183223
vn -0.074523 0.983071 0.167382
vn -0.136161 0.983071 0.122600
vn -0.174255 0.983071 0.056619
vn -0.182219 0.983071 -0.019151
vn -0.158676 0.983071 -0.091611
vn -0.107696 0.983071 -0.148230
vn -0.038095 0.983072 -0.179219
vn -0.000000 1.000000 0.000000
vn 1.000000 -0.000000 0.000000
vn -0.000001 -0.000000 1.000000
vn -1.000000 -0.000000 -0.000000
vn 0.000000 0.605491 -0.795852
vn -0.000000 0.000000 1.000000
vn 0.000000 -0.853685 -0.520789
vn 1.000000 0.000000 0.000002
vn -1.000000 0.000000 -0.000001
usemtl Light.001
s off
f 43//1 13//1 14//1
f 43//1 14//1 15//1
f 43//1 15//1 16//1
f 43//1 16//1 17//1
f 43//1 17//1 18//1
f 43//1 18//1 19//1
f 43//1 19//1 20//1
f 43//1 20//1 21//1
f 43//1 21//1 22//1
f 43//1 22//1 23//1
f 43//1 23//1 24//1
f 43//1 24//1 25//1
f 43//1 25//1 26//1
f 43//1 26//1 27//1
f 43//1 27//1 13//1
s 1
f 13//2 28//3 29//4
f 14//5 29//4 30//6
f 15//7 30//6 31//8
f 16//9 31//8 32//10
f 17//11 32//10 33//12
f 18//13 33//12 34//14
f 19//15 34//14 35//16
f 20//17 35//16 36//18
f 21//19 36//18 22//20
f 22//20 37//21 23//22
f 23//22 38//23 24//24
f 24//24 39//25 25//26
f 25//26 40//27 26//28
f 26//28 41//29 27//30
f 27//30 42//31 13//2
f 14//5 13//2 29//4
f 15//7 14//5 30//6
f 16//9 15//7 31//8
f 17//11 16//9 32//10
f 18//13 17//11 33//12
f 19//15 18//13 34//14
f 20//17 19//15 35//16
f 21//19 20//17 36//18
f 36//18 37//21 22//20
f 37//21 38//23 23//22
f 38//23 39//25 24//24
f 39//25 40//27 25//26
f 40//27 41//29 26//28
f 41//29 42//31 27//30
f 42//31 28//3 13//2
usemtl Light.002
s off
f 44//32 29//32 28//32
f 44//33 30//33 29//33
f 44//34 31//34 30//34
f 44//35 32//35 31//35
f 44//36 33//36 32//36
f 44//37 34//37 33//37
f 44//38 35//38 34//38
f 44//39 36//39 35//39
f 44//40 37//40 36//40
f 44//41 38//41 37//41
f 44//42 39//42 38//42
f 44//43 40//43 39//43
f 44//44 41//44 40//44
f 44//45 42//45 41//45
f 44//46 28//46 42//46
usemtl Brown
f 1//1 2//1 3//1
f 5//47 8//47 7//47
f 1//48 5//48 2//48
f 2//49 6//49 7//49
f 3//50 7//50 4//50
f 5//51 1//51 4//51
f 5//52 10//52 8//52
f 10//47 11//47 12//47
f 5//53 8//53 12//53
f 5//48 11//48 10//48
f 8//50 9//50 12//50
f 4//1 1//1 3//1
f 6//47 5//47 7//47
f 5//54 6//54 2//54
f 3//52 2//52 7//52
f 7//55 8//55 4//55
f 8//51 5//51 4//51
f 10//52 9//52 8//52
f 9//47 10//47 12//47
f 11//53 5//53 12//53
