# Blender v2.66 (sub 1) OBJ File: 'fries.blend'
# www.blender.org
mtllib fries.mtl
o ranskis.005_Cube.991
v 1.331427 -1.169112 0.799987
v -1.340191 -1.169112 0.799987
v -1.340192 -1.169112 -0.951417
v 1.331427 -1.169112 -0.951416
v 1.331427 1.502506 0.799987
v -1.340192 1.502506 0.799986
v -1.340191 1.502506 -0.951417
v 1.331427 1.502506 -0.951417
v 1.178639 1.502506 0.699428
v -1.186191 1.502506 0.699428
v -1.186190 1.502506 -0.850858
v 1.178639 1.502506 -0.850858
v 1.176339 -0.984916 0.698318
v -1.185105 -0.984916 0.698317
v -1.185104 -0.984916 -0.849748
v 1.176339 -0.984916 -0.849747
v -0.901927 3.000590 -0.951417
v 0.893164 3.000590 -0.951416
v -0.797722 3.000590 -0.849748
v 0.788958 3.000590 -0.849748
v -0.431638 3.206691 -0.951417
v 0.422874 3.206691 -0.951416
v -0.382034 3.206691 -0.849748
v 0.373270 3.206691 -0.849748
v 1.927947 -1.169112 0.325869
v 1.927948 -1.169112 -0.477299
v 1.927947 1.502506 0.325869
v 1.927948 1.502506 -0.477299
v -1.893962 -1.169112 0.325869
v -1.893963 -1.169112 -0.477299
v -1.893963 1.502506 0.325869
v -1.893962 1.502506 -0.477299
v 1.709716 1.502506 0.280263
v 1.709716 1.502506 -0.431693
v -1.678159 1.502506 0.280263
v -1.678159 1.502506 -0.431693
v 1.709716 -0.965741 0.280263
v 1.709716 -0.965741 -0.431693
v -1.678160 -0.965741 0.280263
v -1.678159 -0.965741 -0.431693
v -0.711433 -0.597110 -0.249122
v -1.022578 -0.911950 -0.130158
v -1.700570 2.267493 -0.474865
v -1.387256 2.572169 -0.592728
v -0.576208 -0.786870 0.145586
v -0.906274 -1.012989 0.254931
v -1.556346 2.035526 -0.075581
v -1.254200 2.392574 -0.199121
v 1.333051 -0.662986 -0.249122
v 0.934673 -0.855939 -0.130158
v 1.356607 1.937976 -0.474866
v 1.753637 2.120624 -0.592728
v 1.397196 -0.886994 0.145586
v 1.010591 -0.989999 0.254931
v 1.415150 1.671176 -0.075582
v 1.819129 1.906921 -0.199121
v 0.750901 -0.650995 0.157559
v 0.878666 -0.802750 0.570760
v 0.524691 2.361914 -0.168808
v 0.398057 2.503552 -0.579646
v 1.144090 -0.881249 0.107819
v 1.261978 -0.944695 0.500384
v 0.922579 2.089649 -0.208730
v 0.790115 2.283415 -0.631749
v -0.676687 -0.662985 -0.348831
v -0.630246 -0.855940 0.064328
v -0.894677 3.161053 -0.412041
v -0.940272 3.343702 -0.823678
v -0.276859 -0.886994 -0.341972
v -0.237797 -0.989999 0.057895
v -0.491339 2.894253 -0.398858
v -0.541290 3.129998 -0.818342
v -0.379673 -0.650995 0.296205
v 0.049635 -0.802750 0.243730
v -0.740980 1.981599 0.460961
v -1.167760 2.123237 0.512741
v -0.358907 -0.881249 -0.099574
v 0.048340 -0.944695 -0.145987
v -0.709718 1.709334 0.062298
v -1.149521 1.903100 0.117657
v -0.072673 -0.616900 -0.463441
v 0.276277 -0.852473 -0.282257
v -0.259763 2.321301 0.289740
v -0.607000 2.546727 0.106727
v 0.186127 -0.772936 -0.808064
v 0.520119 -0.919945 -0.610918
v 0.006153 2.123133 -0.062476
v -0.349913 2.400838 -0.236067
v 0.614459 -0.642288 -0.285571
v 0.846066 -0.715126 -0.674340
v 0.512796 2.748590 0.713803
v 0.282254 2.812025 1.098135
v 0.321559 -0.812273 -0.594448
v 0.543868 -0.803043 -0.944481
v 0.224321 2.539564 0.386498
v -0.011709 2.651443 0.793696
vn -0.954043 -0.177245 0.241634
vn 0.954042 0.177244 -0.241636
vn -0.216316 -0.150710 -0.964621
vn 0.216315 0.150709 0.964621
vn -0.952447 0.175711 0.248939
vn 0.951269 -0.174986 -0.253903
vn -0.248729 -0.081514 -0.965137
vn 0.247540 0.081729 0.965424
vn 0.262820 0.247342 0.932602
vn -0.262823 -0.247342 -0.932602
vn -0.958749 -0.041522 0.281204
vn 0.958749 0.041522 -0.281204
vn 0.057335 0.120285 0.991082
vn -0.051483 -0.120873 -0.991332
vn -0.994760 -0.055285 0.085997
vn 0.994642 0.055102 -0.087473
vn 0.953972 0.280752 -0.105427
vn -0.953511 -0.279534 0.112597
vn 0.104657 -0.047804 0.993359
vn -0.103895 0.048005 -0.993429
vn 0.805636 0.029433 0.591680
vn -0.805637 -0.029434 -0.591678
vn -0.569266 -0.237978 0.786958
vn 0.569267 0.237978 -0.786957
vn 0.565116 0.351268 -0.746495
vn -0.575115 -0.351404 0.738754
vn 0.840991 -0.129604 0.525297
vn -0.842196 0.128793 -0.523563
vn -0.954042 -0.177245 0.241635
vn 0.954042 0.177244 -0.241635
vn -0.050733 -0.120904 -0.991367
vn -0.950553 0.175190 0.256431
vn 0.951414 -0.175024 -0.253334
vn -0.248994 -0.081506 -0.965069
vn 0.251053 0.081626 0.964526
vn 0.262821 0.247342 0.932602
vn -0.262821 -0.247343 -0.932602
vn 0.104515 -0.047824 0.993373
vn 0.047439 0.120710 0.991554
vn -0.994789 -0.055292 0.085656
vn 0.995021 0.055191 -0.082985
vn 0.953026 0.279683 -0.116274
vn -0.953584 -0.279613 0.111775
vn -0.105758 0.047741 -0.993245
vn 0.805636 0.029433 0.591679
vn -0.805635 -0.029433 -0.591680
vn -0.569267 -0.237978 0.786957
vn 0.569267 0.237978 -0.786958
vn 0.580215 0.350471 -0.735201
vn -0.573973 -0.351468 0.739612
vn 0.840710 -0.129735 0.525714
vn -0.838475 0.130516 -0.529080
vn -0.551866 0.169378 0.816523
vn 0.484176 0.696829 0.529099
vn -0.894192 0.310587 -0.322367
vn -0.455306 0.357402 0.815424
vn 0.698355 0.489578 0.522080
vn -0.735313 0.592364 -0.329203
vn 0.826594 0.387341 0.408246
vn 0.513718 0.421552 -0.747246
vn -0.305887 0.663961 0.682302
vn 0.720603 0.326304 0.611713
vn 0.649617 0.502182 -0.570757
vn -0.440840 0.589343 0.676962
vn 0.532579 0.400586 -0.745537
vn -0.657613 0.410138 -0.631886
vn 0.610096 0.668020 0.425977
vn 0.918119 0.383618 -0.099368
vn -0.037751 0.684408 -0.728111
vn -0.623066 0.750481 0.220344
vn -0.207251 0.538682 -0.816584
vn -0.896603 0.414319 0.156102
vn 0.716300 0.692496 -0.085604
vn 0.087497 0.846248 -0.525529
vn 0.370525 0.762658 -0.530106
vn -0.533494 0.728660 -0.429426
vn -0.447920 0.776025 -0.443953
vn -0.525895 0.720939 0.451247
vn 0.235328 0.443434 0.864834
vn 0.022462 0.589251 0.807611
vn 0.000000 -1.000000 0.000000
vn 0.000001 -1.000000 0.000000
vn 0.000000 1.000000 -0.000000
vn -0.000000 1.000000 0.000002
vn -0.371203 0.847027 0.380464
vn 0.371203 0.847027 0.380464
vn 0.591138 0.532406 0.605887
vn 0.188793 -0.407753 -0.893362
vn -0.000001 -1.000000 -0.000000
vn -0.434126 0.875598 0.211811
vn 0.434126 0.875598 0.211811
vn 0.186467 0.411189 0.892275
vn 0.596134 -0.520860 -0.611006
vn 0.354228 0.054781 -0.933531
vn -0.372143 0.057436 -0.926359
vn 0.133580 -0.035859 -0.990387
vn 0.253182 -0.639912 0.725516
vn 0.253182 0.639912 0.725516
vn -0.267281 -0.636738 0.723228
vn -0.267281 -0.636738 -0.723228
vn 0.253182 -0.639912 -0.725516
vn 0.832301 0.493454 -0.252449
vn -0.697897 0.255928 -0.668874
vn 0.607105 0.666829 -0.432081
vn 0.226630 0.762688 -0.605701
vn 0.705802 0.621113 0.340617
vn 0.705802 -0.621113 0.340617
vn 0.705802 -0.621113 -0.340617
vn -0.709830 -0.623981 0.326701
vn -0.709830 0.623981 0.326701
vn -0.267281 0.636738 0.723228
vn -0.709830 -0.623981 -0.326701
vn -0.226630 0.762688 -0.605701
vn 0.648538 -0.000000 -0.761182
vn -0.000000 0.000446 1.000000
vn 0.000000 0.000446 -1.000000
vn -0.000000 0.000000 1.000000
vn -0.000000 -0.000741 1.000000
vn -0.611599 -0.159663 0.774890
vn -1.000000 -0.000000 -0.000001
vn -0.619547 0.000000 0.784959
vn 1.000000 -0.000000 0.000001
vn -0.619548 -0.000000 -0.784959
vn 0.648538 -0.000000 0.761182
vn 0.639498 -0.166384 0.750572
vn 0.646726 0.000623 -0.762723
vn -0.000000 -0.000001 1.000000
vn -0.616903 0.000922 0.787038
vn -0.616904 0.000922 -0.787038
vn 0.646726 0.000623 0.762722
usemtl Material.006
s off
f 46//1 47//1 42//1
f 48//2 45//2 41//2
f 44//3 41//3 43//3
f 48//4 47//4 45//4
f 54//5 55//5 50//5
f 56//6 53//6 49//6
f 49//7 50//7 51//7
f 56//8 55//8 53//8
f 62//9 63//9 58//9
f 64//10 61//10 57//10
f 57//11 58//11 59//11
f 64//12 63//12 61//12
f 70//13 71//13 66//13
f 68//14 72//14 65//14
f 65//15 66//15 67//15
f 72//16 71//16 69//16
f 78//17 79//17 74//17
f 80//18 77//18 73//18
f 76//19 73//19 75//19
f 80//20 79//20 77//20
f 86//21 87//21 82//21
f 88//22 85//22 81//22
f 81//23 82//23 83//23
f 88//24 87//24 85//24
f 94//25 95//25 90//25
f 96//26 93//26 89//26
f 89//27 90//27 91//27
f 96//28 95//28 93//28
f 47//29 43//29 42//29
f 44//30 48//30 41//30
f 72//31 69//31 65//31
f 47//4 46//4 45//4
f 55//32 51//32 50//32
f 52//33 56//33 49//33
f 52//34 49//34 51//34
f 55//35 54//35 53//35
f 63//36 59//36 58//36
f 60//37 64//37 57//37
f 60//11 57//11 59//11
f 63//12 62//12 61//12
f 73//38 74//38 75//38
f 71//39 67//39 66//39
f 68//40 65//40 67//40
f 71//41 70//41 69//41
f 79//42 75//42 74//42
f 76//43 80//43 73//43
f 79//44 78//44 77//44
f 87//45 83//45 82//45
f 84//46 88//46 81//46
f 84//47 81//47 83//47
f 87//48 86//48 85//48
f 95//49 91//49 90//49
f 92//50 96//50 89//50
f 92//51 89//51 91//51
f 95//52 94//52 93//52
f 41//3 42//3 43//3
s 1
f 47//53 48//54 43//55
f 55//56 56//57 51//58
f 63//59 64//60 59//61
f 71//62 72//63 67//64
f 79//65 80//66 75//67
f 87//68 88//69 84//70
f 95//71 96//72 91//73
f 48//54 44//74 43//55
f 56//57 52//75 51//58
f 64//60 60//76 59//61
f 72//63 68//77 67//64
f 80//66 76//78 75//67
f 83//79 87//68 84//70
f 96//72 92//80 91//73
usemtl Material
s off
f 1//81 2//81 3//81
f 3//82 2//82 29//82
f 27//83 28//83 34//83
f 6//83 5//83 10//83
f 22//84 21//84 23//84
f 17//85 19//85 21//85
f 20//86 18//86 22//86
f 1//81 4//81 25//81
f 32//83 31//83 35//83
f 5//83 27//83 33//83
f 31//83 6//83 35//83
f 20//87 34//87 18//87
f 32//88 17//88 36//88
f 4//81 1//81 3//81
f 30//89 3//89 29//89
f 33//83 27//83 34//83
f 5//83 9//83 10//83
f 24//83 22//83 23//83
f 19//90 23//90 21//90
f 24//91 20//91 22//91
f 36//83 32//83 35//83
f 9//83 5//83 33//83
f 6//83 10//83 35//83
f 34//92 28//92 18//92
f 17//93 19//93 36//93
f 4//81 26//81 25//81
s 1
f 8//94 7//95 17//96
f 1//97 5//98 2//99
f 3//100 7//95 8//94
f 4//101 8//94 28//102
f 7//95 32//103 17//96
f 18//104 28//102 8//94
f 18//104 17//96 22//105
f 27//106 25//107 26//108
f 5//98 1//97 25//107
f 29//109 31//110 32//103
f 2//99 6//111 31//110
f 7//95 3//100 32//103
f 18//104 8//94 17//96
f 3//100 30//112 32//103
f 4//101 3//100 8//94
f 26//108 4//101 28//102
f 17//96 21//113 22//105
f 28//102 27//106 26//108
f 5//98 6//111 2//99
f 27//106 5//98 25//107
f 30//112 29//109 32//103
f 29//109 2//99 31//110
usemtl Material.001
s off
f 35//114 10//114 39//114
f 12//115 11//115 16//115
f 10//116 9//116 13//116
f 19//117 20//117 23//117
f 11//118 12//118 20//118
f 12//119 34//119 20//119
f 33//120 34//120 38//120
f 34//121 12//121 38//121
f 36//122 35//122 39//122
f 9//123 33//123 37//123
f 11//124 36//124 40//124
f 19//125 36//125 11//125
f 10//126 14//126 39//126
f 11//115 15//115 16//115
f 14//116 10//116 13//116
f 19//118 11//118 20//118
f 20//127 24//127 23//127
f 37//120 33//120 38//120
f 12//128 16//128 38//128
f 40//122 36//122 39//122
f 13//129 9//129 37//129
f 15//130 11//130 40//130
