# Blender v2.66 (sub 1) OBJ File: 'kahvi.blend'
# www.blender.org
mtllib kahvi.mtl
o kahvi_Cylinder.060
v 0.062469 0.021173 -1.739493
v 0.062469 5.575464 -1.739493
v 0.723307 0.021173 -1.608044
v 0.723307 5.575464 -1.608044
v 1.283539 0.021173 -1.233709
v 1.283539 5.575464 -1.233709
v 1.657873 0.021173 -0.673478
v 1.657873 5.575464 -0.673478
v 1.789322 0.021173 -0.012640
v 1.789322 5.575464 -0.012640
v 1.657873 0.021173 0.648198
v 1.657873 5.575464 0.648198
v 1.283539 0.021173 1.208429
v 1.283539 5.575464 1.208429
v 0.723307 0.021173 1.582764
v 0.723307 5.575464 1.582764
v 0.062470 0.021173 1.714213
v 0.062470 5.575464 1.714213
v -0.598368 0.021173 1.582764
v -0.598368 5.575464 1.582764
v -1.158600 0.021173 1.208430
v -1.158600 5.575464 1.208430
v -1.532935 0.021173 0.648198
v -1.532935 5.575464 0.648198
v -1.664384 0.021173 -0.012640
v -1.664384 5.575464 -0.012640
v -1.532935 0.021173 -0.673478
v -1.532935 5.575464 -0.673478
v -1.158600 0.021173 -1.233710
v -1.158600 5.575464 -1.233710
v -0.598368 0.021173 -1.608045
v -0.598368 5.575464 -1.608045
v 0.062469 7.229951 -1.389495
v 0.589369 7.229951 -1.284688
v 1.036052 7.229951 -0.986223
v 1.334517 7.229951 -0.539539
v 1.439324 7.229951 -0.012640
v 1.334517 7.229951 0.514260
v 1.036052 7.229951 0.960943
v 0.589369 7.229951 1.259408
v 0.062469 7.229951 1.364215
v -0.464430 7.229951 1.259408
v -0.911114 7.229951 0.960944
v -1.209579 7.229951 0.514260
v -1.314385 7.229951 -0.012640
v -1.209578 7.229951 -0.539540
v -0.911114 7.229951 -0.986224
v -0.464430 7.229951 -1.284688
v 0.062469 7.835802 -0.695200
v 0.323674 7.835802 -0.643243
v 0.545112 7.835802 -0.495283
v 0.693072 7.835802 -0.273844
v 0.745029 7.835802 -0.012640
v 0.693072 7.835802 0.248564
v 0.545112 7.835802 0.470003
v 0.323674 7.835802 0.617963
v 0.062469 7.835802 0.669920
v -0.198735 7.835802 0.617963
v -0.420173 7.835802 0.470003
v -0.568134 7.835802 0.248564
v -0.620091 7.835802 -0.012640
v -0.568134 7.835802 -0.273844
v -0.420173 7.835802 -0.495283
v -0.198735 7.835802 -0.643243
v 0.138305 5.612398 -2.983878
v 0.799143 5.612398 -2.827771
v -0.522532 5.612398 -2.827771
v 0.138305 5.150067 -2.696765
v 0.138305 5.674688 -2.696765
v 0.365473 5.150067 -2.565609
v 0.365473 5.674688 -2.565609
v 0.365473 5.150067 -2.303299
v 0.365473 5.674688 -2.303299
v 0.138305 5.150067 -2.172143
v 0.138305 5.674688 -2.172143
v -0.088862 5.150067 -2.303299
v -0.088862 5.674688 -2.303299
v -0.088862 5.150067 -2.565609
v -0.088862 5.674688 -2.565609
vn 0.000000 0.000000 -1.000000
vn -0.000214 -0.742393 -0.669912
vn 0.670583 -0.179998 -0.719626
vn 0.382672 0.000000 -0.923856
vn 0.707083 0.000000 -0.707083
vn 0.703360 0.102725 -0.703360
vn 0.918973 0.102725 -0.380657
vn 0.923856 0.000000 -0.382672
vn 0.994690 0.102725 0.000000
vn 1.000000 0.000000 0.000000
vn 0.923856 0.000000 0.382672
vn 0.918973 0.102725 0.380657
vn 0.703360 0.102725 0.703360
vn 0.707083 0.000000 0.707083
vn 0.380657 0.102725 0.918973
vn 0.382672 0.000000 0.923856
vn 0.000000 0.102725 0.994690
vn 0.000000 0.000000 1.000000
vn -0.382672 0.000000 0.923856
vn -0.380657 0.102725 0.918973
vn -0.707083 0.000000 0.707083
vn -0.703360 0.102725 0.703360
vn -0.918973 0.102725 0.380657
vn -0.923856 0.000000 0.382672
vn -0.994690 0.102725 0.000000
vn -1.000000 0.000000 0.000000
vn -0.918973 0.102725 -0.380657
vn -0.923856 0.000000 -0.382672
vn -0.707083 0.000000 -0.707083
vn -0.382672 0.000000 -0.923856
vn -0.654408 -0.147435 -0.741600
vn -0.703360 0.102725 -0.703360
vn 0.000000 -0.609973 -0.792383
vn 0.866024 0.000000 -0.499985
vn 0.686239 -0.609973 -0.396191
vn 0.866024 0.000000 0.499985
vn 0.686239 -0.609973 0.396191
vn 0.000000 -0.609973 0.792383
vn -0.866024 0.000000 0.499985
vn -0.686239 -0.609973 -0.396191
vn -0.866024 0.000000 -0.499985
vn -0.686239 -0.609973 0.396191
vn -0.616443 0.489822 -0.616443
vn -0.400678 0.595477 -0.696280
vn -0.148595 0.921506 -0.358776
vn -0.871792 0.489822 0.000000
vn -0.616443 0.489822 0.616443
vn -0.333628 0.489822 0.805444
vn 0.616443 0.489822 0.616443
vn 0.871792 0.489822 0.000000
vn 0.616443 0.489822 -0.616443
vn 0.658956 -0.322581 -0.679464
vn 0.004089 -0.332682 -0.942991
vn -0.001892 0.723441 -0.690359
vn -0.805444 0.489822 -0.333628
vn -0.805444 0.489822 0.333628
vn 0.333628 0.489822 0.805444
vn 0.805444 0.489822 0.333628
vn 0.401166 0.602191 -0.690207
vn 0.000000 0.489822 0.871792
vn -0.148595 0.921506 0.358776
vn 0.805444 0.489822 -0.333628
vn 0.358776 0.921506 -0.148595
vn 0.388318 0.921506 0.000000
vn -0.274575 0.921506 0.274575
vn -0.358776 0.921506 0.148595
vn 0.358776 0.921506 0.148595
vn -0.358776 0.921506 -0.148595
vn 0.148595 0.921506 0.358776
vn 0.000000 0.921506 -0.388318
vn 0.148595 0.921506 -0.358776
vn -0.614978 -0.334147 -0.714225
vn 0.000000 0.921506 0.388318
vn 0.274575 0.921506 0.274575
vn -0.274575 0.921506 -0.274575
vn -0.388318 0.921506 0.000000
vn 0.274575 0.921506 -0.274575
usemtl Material.014
s 1
f 1//1 2//2 4//3
f 3//4 4//3 5//5
f 5//5 6//6 8//7
f 7//8 8//7 10//9
f 9//10 10//9 11//11
f 11//11 12//12 14//13
f 13//14 14//13 16//15
f 15//16 16//15 18//17
f 17//18 18//17 19//19
f 19//19 20//20 21//21
f 21//21 22//22 24//23
f 23//24 24//23 26//25
f 25//26 26//25 28//27
f 27//28 28//27 29//29
f 31//30 32//31 2//2
f 29//29 30//32 32//31
f 68//33 69//1 71//34
f 70//35 71//34 73//36
f 72//37 73//36 75//18
f 74//38 75//18 77//39
f 78//40 79//41 69//1
f 76//42 77//39 79//41
f 68//33 70//35 78//40
f 3//4 1//1 4//3
f 7//8 5//5 8//7
f 9//10 7//8 10//9
f 13//14 11//11 14//13
f 15//16 13//14 16//15
f 17//18 15//16 18//17
f 28//27 30//32 29//29
f 23//24 21//21 24//23
f 25//26 23//24 26//25
f 27//28 25//26 28//27
f 10//9 12//12 11//11
f 1//1 31//30 2//2
f 31//30 29//29 32//31
f 4//3 6//6 5//5
f 18//17 20//20 19//19
f 20//20 22//22 21//21
f 70//35 68//33 71//34
f 72//37 70//35 73//36
f 74//38 72//37 75//18
f 76//42 74//38 77//39
f 68//33 78//40 69//1
f 78//40 76//42 79//41
f 70//35 72//37 78//40
f 72//37 74//38 76//42
f 78//40 72//37 76//42
usemtl Material.012
f 32//31 30//32 47//43
f 48//44 47//43 64//45
f 28//27 26//25 45//46
f 24//23 22//22 43//47
f 20//20 18//17 42//48
f 16//15 14//13 39//49
f 12//12 10//9 37//50
f 8//7 6//6 35//51
f 66//52 65//53 33//54
f 30//32 28//27 46//55
f 26//25 24//23 44//56
f 22//22 20//20 43//47
f 18//17 16//15 40//57
f 14//13 12//12 38//58
f 10//9 8//7 37//50
f 6//6 4//3 34//59
f 42//48 41//60 58//61
f 36//62 35//51 52//63
f 33//54 48//44 64//45
f 43//47 42//48 58//61
f 37//50 36//62 53//64
f 44//56 43//47 59//65
f 38//58 37//50 53//64
f 45//46 44//56 60//66
f 39//49 38//58 54//67
f 46//55 45//46 62//68
f 40//57 39//49 56//69
f 34//59 33//54 49//70
f 47//43 46//55 62//68
f 41//60 40//57 56//69
f 35//51 34//59 50//71
f 2//2 32//31 67//72
f 4//3 2//2 66//52
f 65//53 67//72 33//54
f 32//31 48//44 67//72
f 34//59 4//3 66//52
f 65//53 2//2 67//72
f 2//2 65//53 66//52
f 20//20 42//48 43//47
f 41//60 57//73 58//61
f 8//7 36//62 37//50
f 48//44 32//31 47//43
f 46//55 28//27 45//46
f 44//56 24//23 43//47
f 40//57 16//15 39//49
f 38//58 12//12 37//50
f 36//62 8//7 35//51
f 34//59 66//52 33//54
f 47//43 30//32 46//55
f 45//46 26//25 44//56
f 41//60 18//17 40//57
f 39//49 14//13 38//58
f 18//17 41//60 42//48
f 35//51 6//6 34//59
f 39//49 55//74 56//69
f 47//43 63//75 64//45
f 49//70 33//54 64//45
f 59//65 43//47 58//61
f 60//66 44//56 59//65
f 54//67 38//58 53//64
f 61//76 45//46 60//66
f 55//74 39//49 54//67
f 36//62 52//63 53//64
f 35//51 51//77 52//63
f 50//71 34//59 49//70
f 63//75 47//43 62//68
f 57//73 41//60 56//69
f 51//77 35//51 50//71
f 67//72 48//44 33//54
f 45//46 61//76 62//68
usemtl Material.013
f 51//77 50//71 52//63
f 61//76 60//66 59//65
f 54//67 53//64 56//69
f 58//61 57//73 56//69
f 64//45 63//75 49//70
f 63//75 62//68 59//65
f 54//67 56//69 55//74
f 50//71 49//70 52//63
f 53//64 52//63 56//69
f 52//63 58//61 56//69
f 63//75 52//63 49//70
f 62//68 61//76 59//65
f 59//65 58//61 63//75
f 58//61 52//63 63//75
