# Blender v2.66 (sub 1) OBJ File: 'kauha.blend'
# www.blender.org
mtllib kauha.mtl
o Icosphere.001
v -0.009467 -0.743691 -5.851822
v 0.795446 0.102644 -6.959702
v 1.292921 0.102643 -5.428658
v -0.009467 0.102650 -4.482410
v -1.311854 0.102643 -5.428658
v -0.814379 0.102644 -6.959702
v -0.009467 0.788719 -5.851820
v 0.463646 -0.515035 -6.503013
v 1.229172 -0.017572 -6.254288
v 0.756052 -0.515036 -5.603095
v -0.482579 -0.515035 -6.503013
v -0.009467 -0.017569 -7.154208
v 0.756054 -0.017569 -4.798169
v -0.009467 -0.515032 -5.046903
v -0.774988 -0.017569 -4.798169
v -0.774985 -0.515036 -5.603095
v -1.248105 -0.017572 -6.254288
v -0.482581 0.787360 -7.307940
v 0.463648 0.787360 -7.307940
v 1.229179 0.787360 -6.751752
v 1.521584 0.787360 -5.851822
v 1.229179 0.787360 -4.951892
v 0.463647 0.787360 -4.395704
v -0.482581 0.787360 -4.395704
v -1.248113 0.787360 -4.951893
v -1.540518 0.787360 -5.851822
v -1.248112 0.787360 -6.751752
vn 0.315090 -0.943523 -0.102381
vn 0.268032 -0.661699 -0.700224
vn 0.194736 -0.943523 0.268034
vn -0.194737 -0.943523 0.268034
vn -0.315090 -0.943523 -0.102381
vn 0.268032 -0.330385 -0.904989
vn 0.943521 -0.330386 -0.024746
vn 0.315094 -0.330385 0.889697
vn -0.748784 -0.330388 0.574602
vn -0.777865 -0.330386 -0.534576
vn 0.583127 -0.125627 -0.802609
vn 0.943522 -0.125629 0.306569
vn 0.000000 -0.125629 0.992077
vn -0.943521 -0.125629 0.306569
vn -0.583126 -0.125627 -0.802609
vn 0.748779 -0.661699 0.038530
vn 0.577345 -0.794658 -0.187594
vn 0.583122 -0.661699 -0.471300
vn -0.268031 -0.661699 -0.700224
vn 0.000000 -0.794656 -0.607060
vn 0.000000 -0.943524 -0.331305
vn 0.194736 -0.661695 0.724042
vn 0.356821 -0.794657 0.491119
vn 0.628425 -0.661698 0.408946
vn -0.628425 -0.661698 0.408946
vn -0.356821 -0.794657 0.491119
vn -0.194736 -0.661695 0.724042
vn -0.583122 -0.661699 -0.471300
vn -0.577345 -0.794658 -0.187594
vn -0.748779 -0.661699 0.038530
vn 0.000000 -0.187598 -0.982246
vn -0.268031 -0.330384 -0.904989
vn 0.000888 1.000000 -0.000288
vn 0.934171 -0.187597 -0.303531
vn 0.777865 -0.330387 -0.534576
vn 0.577348 -0.187595 0.794656
vn 0.748783 -0.330388 0.574602
vn -0.577348 -0.187595 0.794655
vn -0.315094 -0.330385 0.889697
vn -0.934171 -0.187597 -0.303531
vn -0.943521 -0.330386 -0.024746
vn 0.000000 1.000000 -0.000933
vn 0.000549 1.000000 0.000755
vn -0.000549 1.000000 0.000755
vn -0.000888 1.000000 -0.000288
vn 0.000549 1.000000 -0.000755
vn 0.000888 1.000000 0.000288
vn 0.000000 1.000000 0.000933
vn -0.000888 1.000000 0.000288
vn -0.000549 1.000000 -0.000755
usemtl water
s off
o Icosphere
v -0.172687 0.442262 -4.394032
v -0.172688 0.595741 3.044212
v -0.124881 0.557652 -4.396412
v -0.124881 0.711130 3.041831
v -0.009467 0.605448 -4.397399
v -0.009467 0.758926 3.040845
v 0.105947 0.557652 -4.396412
v 0.105947 0.711130 3.041831
v 0.153754 0.442262 -4.394032
v 0.153753 0.595741 3.044212
v 0.105947 0.326873 -4.428508
v 0.105947 0.480351 3.046593
v -0.009467 0.279077 -4.427522
v -0.009467 0.432555 3.047579
v -0.124881 0.326873 -4.428508
v -0.124881 0.480351 3.046593
v -0.263297 0.602505 3.372022
v -0.188952 0.781951 3.368320
v -0.009467 0.856280 3.366786
v 0.170017 0.781951 3.368320
v 0.244362 0.602505 3.372022
v 0.170017 0.423058 3.375725
v -0.009467 0.348729 3.377259
v -0.188952 0.423058 3.375725
v -0.263297 0.670127 6.649375
v -0.188952 0.849574 6.645672
v -0.009468 0.923903 6.644139
v 0.170017 0.849574 6.645672
v 0.244362 0.670127 6.649375
v 0.170017 0.490681 6.653078
v -0.009468 0.416352 6.654611
v -0.188952 0.490681 6.653078
v -0.009467 -0.800041 -5.851822
v 0.825070 0.077443 -7.000477
v 1.340855 0.077443 -5.413084
v -0.009467 0.077449 -4.432010
v -1.359788 0.077443 -5.413084
v -0.844003 0.077443 -7.000477
v 0.887462 -0.024840 -5.200164
v 0.333125 -0.024840 -4.797417
v -0.352058 -0.024840 -4.797417
v -0.906396 -0.024840 -5.200165
v -1.118132 -0.024840 -5.851822
v -0.906396 -0.024840 -6.503480
v 0.481058 -0.562969 -6.526980
v 1.274759 -0.047197 -6.269100
v 0.784226 -0.562970 -5.593940
v -0.499991 -0.562969 -6.526980
v -0.009467 -0.047194 -7.202141
v 0.784229 -0.047194 -4.759390
v -0.009467 -0.562966 -5.017279
v -0.803162 -0.047194 -4.759390
v -0.803159 -0.562970 -5.593940
v -1.293692 -0.047197 -6.269101
v -0.499993 0.787360 -7.361532
v 0.481060 0.787360 -7.361532
v 1.274767 0.787360 -6.784873
v 1.577934 0.787360 -5.851822
v 1.274767 0.787360 -4.918771
v 0.481060 0.787360 -4.342113
v -0.499994 0.787360 -4.342113
v -1.293700 0.787360 -4.918771
v -1.596867 0.787360 -5.851822
v -1.293700 0.787360 -6.784874
v -1.238584 0.787360 -6.744829
v -1.528739 0.787360 -5.851822
v -1.238584 0.787360 -4.958816
v -0.478941 0.787360 -4.406906
v 0.460008 0.787360 -4.406906
v 1.219650 0.787360 -4.958816
v 1.509806 0.787360 -5.851822
v 1.219651 0.787360 -6.744829
v 0.460008 0.787360 -7.296739
v -0.478941 0.787360 -7.296739
v 1.099199 -0.024840 -5.851822
v 0.887463 -0.024840 -6.503480
v 0.333125 -0.024840 -6.906228
v -0.352058 -0.024840 -6.906228
v -0.009467 -0.612788 -5.851822
vn 0.000000 -0.992920 -0.118564
vn 0.700034 -0.703146 -0.124516
vn 0.701071 -0.703604 -0.115726
vn 0.000000 -0.993957 -0.109745
vn 0.991455 -0.002686 -0.130192
vn 0.701071 0.698233 -0.144658
vn 0.548967 0.561846 0.618793
vn 0.776360 0.013001 0.630116
vn -0.700034 -0.703146 -0.124516
vn -0.701071 -0.703604 -0.115726
vn -0.990265 -0.003143 -0.138951
vn -0.991455 -0.002686 -0.130192
vn 0.000000 0.987213 -0.159368
vn -0.700217 0.697226 -0.153386
vn -0.701071 0.698233 -0.144658
vn 0.000000 0.988556 -0.150639
vn 0.700217 0.697226 -0.153386
vn 0.990265 -0.003143 -0.138951
vn -0.548967 0.561846 0.618793
vn 0.000000 0.789209 0.614093
vn -0.776360 0.013001 0.630116
vn -0.548967 -0.535844 0.641438
vn 0.548967 -0.535844 0.641438
vn 0.000000 -0.763207 0.646138
vn -0.999359 -0.035432 0.000702
vn -0.707083 0.706931 -0.014557
vn 0.000000 0.999786 -0.020600
vn 0.707083 0.706931 -0.014557
vn 0.999359 -0.035432 0.000702
vn 0.676534 -0.736229 0.015107
vn 0.000000 -0.999786 0.020508
vn -0.676534 -0.736229 0.015107
vn 0.000000 -1.000000 0.000000
vn 0.309000 -0.850642 -0.425306
vn 0.499985 -0.850642 0.162450
vn 0.525712 -0.447188 -0.723594
vn 0.000000 -0.525712 -0.850642
vn 0.000000 -0.850642 0.525712
vn -0.499985 -0.850642 0.162450
vn -0.309000 -0.850642 -0.425306
vn 0.244453 0.555101 -0.795038
vn 0.850642 -0.447218 0.276376
vn 0.808985 -0.525712 -0.262856
vn 0.831660 0.555101 -0.013184
vn 0.000000 -0.447188 0.894406
vn 0.499985 -0.525712 0.688162
vn 0.269509 0.555101 0.786859
vn -0.850642 -0.447218 0.276376
vn -0.499985 -0.525712 0.688162
vn -0.665059 0.555101 0.499496
vn -0.525712 -0.447188 -0.723594
vn -0.808985 -0.525712 -0.262856
vn -0.680563 0.555101 -0.478164
vn 0.680563 0.555101 -0.478164
vn 0.665059 0.555101 0.499496
vn -0.269509 0.555101 0.786859
vn -0.831660 0.555101 -0.013184
vn -0.244453 0.555101 -0.795038
vn 0.135868 0.898099 -0.418195
vn -0.135868 0.898099 -0.418195
vn -0.228980 0.671438 -0.704764
vn 0.228980 0.671438 -0.704764
vn -0.439711 0.898099 0.000000
vn -0.355724 0.898099 0.258461
vn -0.599506 0.671438 0.435560
vn -0.741050 0.671438 0.000000
vn 0.439711 0.898099 0.000000
vn 0.355724 0.898099 -0.258461
vn 0.599506 0.671438 -0.435560
vn 0.741050 0.671438 0.000000
vn -0.355724 0.898099 -0.258461
vn -0.599506 0.671438 -0.435560
vn 0.135868 0.898099 0.418195
vn 0.355724 0.898099 0.258461
vn 0.599506 0.671438 0.435560
vn 0.228980 0.671438 0.704764
vn -0.135868 0.898099 0.418195
vn -0.228980 0.671438 0.704764
vn 0.000000 1.000000 0.000000
usemtl handle
s 1
f 41//51 39//52 49//53
f 41//51 49//53 50//54
f 48//55 47//56 55//57
f 48//55 55//57 56//58
f 43//59 41//51 50//54
f 43//59 50//54 51//60
f 29//61 43//59 51//60
f 29//61 51//60 44//62
f 33//63 31//64 45//65
f 33//63 45//65 46//66
f 35//67 33//63 46//66
f 35//67 46//66 47//56
f 31//64 29//61 44//62
f 31//64 44//62 45//65
f 37//68 35//67 47//56
f 37//68 47//56 48//55
f 39//52 37//68 48//55
f 39//52 48//55 49//53
f 53//69 55//57 54//70
f 53//69 56//58 55//57
f 53//69 52//71 56//58
f 52//71 59//72 56//58
f 59//72 57//73 56//58
f 59//72 58//74 57//73
f 51//60 50//54 58//74
f 51//60 58//74 59//72
f 47//56 46//66 54//70
f 47//56 54//70 55//57
f 50//54 49//53 57//73
f 50//54 57//73 58//74
f 46//66 45//65 53//69
f 46//66 53//69 54//70
f 49//53 48//55 56//58
f 49//53 56//58 57//73
f 44//62 51//60 59//72
f 44//62 59//72 52//71
f 45//65 44//62 52//71
f 45//65 52//71 53//69
usemtl kauha
f 28//75 29//61 31//64
f 28//75 31//64 30//76
f 30//76 31//64 33//63
f 30//76 33//63 32//77
f 32//77 33//63 35//67
f 32//77 35//67 34//78
f 34//78 35//67 37//68
f 34//78 37//68 36//79
f 36//79 37//68 39//52
f 36//79 39//52 38//80
f 38//80 39//52 41//51
f 38//80 41//51 40//81
f 29//61 28//75 42//82
f 29//61 42//82 43//59
f 40//81 41//51 43//59
f 40//81 43//59 42//82
f 60//83 72//84 74//85
f 61//86 72//84 76//87
f 60//83 74//85 78//88
f 60//83 78//88 80//89
f 60//83 80//89 75//90
f 61//86 76//87 83//91
f 62//92 73//93 85//94
f 63//95 77//96 87//97
f 64//98 79//99 89//100
f 65//101 81//102 91//103
f 61//86 83//91 84//104
f 62//92 85//94 86//105
f 63//95 87//97 88//106
f 64//98 89//100 90//107
f 65//101 91//103 82//108
f 74//85 73//93 62//92
f 74//85 72//84 73//93
f 72//84 61//86 73//93
f 76//87 75//90 65//101
f 76//87 72//84 75//90
f 72//84 60//83 75//90
f 78//88 77//96 63//95
f 78//88 74//85 77//96
f 74//85 62//92 77//96
f 80//89 79//99 64//98
f 80//89 78//88 79//99
f 78//88 63//95 79//99
f 75//90 81//102 65//101
f 75//90 80//89 81//102
f 80//89 64//98 81//102
f 83//91 76//87 82//108
f 76//87 65//101 82//108
f 85//94 73//93 84//104
f 73//93 61//86 84//104
f 87//97 77//96 86//105
f 77//96 62//92 86//105
f 89//100 79//99 88//106
f 79//99 63//95 88//106
f 91//103 81//102 90//107
f 81//102 64//98 90//107
f 95//109 96//110 67//111
f 95//109 67//111 68//112
f 98//113 99//114 103//115
f 98//113 103//115 102//116
f 93//117 94//118 69//119
f 93//117 69//119 70//120
f 96//110 97//121 66//122
f 96//110 66//122 67//111
f 101//123 92//124 71//125
f 101//123 71//125 105//126
f 94//118 95//109 68//112
f 94//118 68//112 69//119
f 92//124 93//117 70//120
f 92//124 70//120 71//125
f 99//114 100//127 104//128
f 99//114 104//128 103//115
f 97//121 98//113 102//116
f 97//121 102//116 66//122
f 100//127 101//123 105//126
f 100//127 105//126 104//128
f 83//91 82//108 101//123
f 83//91 101//123 100//127
f 87//97 86//105 97//121
f 87//97 97//121 96//110
f 91//103 90//107 93//117
f 91//103 93//117 92//124
f 84//104 83//91 100//127
f 84//104 100//127 99//114
f 88//106 87//97 96//110
f 88//106 96//110 95//109
f 82//108 91//103 92//124
f 82//108 92//124 101//123
f 85//94 84//104 99//114
f 85//94 99//114 98//113
f 89//100 88//106 95//109
f 89//100 95//109 94//118
f 86//105 85//94 98//113
f 86//105 98//113 97//121
f 90//107 89//100 94//118
f 90//107 94//118 93//117
f 104//128 105//126 106//129
f 66//122 102//116 106//129
f 68//112 67//111 106//129
f 102//116 103//115 106//129
f 67//111 66//122 106//129
f 70//120 69//119 106//129
f 69//119 68//112 106//129
f 105//126 71//125 106//129
f 71//125 70//120 106//129
f 103//115 104//128 106//129
