# Blender v2.66 (sub 1) OBJ File: ''
# www.blender.org
mtllib monitor.mtl
o Screen1_Cylinder.001
v -0.628410 5.109476 -1.679510
v -0.628410 5.109476 -0.273727
v 0.777379 5.109476 -0.273727
v 0.777382 5.109476 -1.679510
v -1.575968 0.008928 -1.679510
v -1.575968 0.008928 -0.273727
v 1.724939 0.008928 -0.273727
v 1.724939 0.008928 -1.679510
v -3.742416 8.222269 -1.504830
v -3.742416 8.701383 -0.188477
v 3.891371 8.701383 -0.188477
v 3.891388 8.222269 -1.504830
v -3.742416 1.048848 1.106079
v -3.742416 1.527961 2.422431
v 3.891388 1.527961 2.422431
v 3.891388 1.048848 1.106079
v -3.377102 1.871244 2.297487
v 3.526073 1.871244 2.297487
v -3.377102 8.358099 -0.063533
v 3.526058 8.358099 -0.063533
vt 0.999900 0.000100
vt 0.999898 0.999899
vt 0.000100 0.000100
vt 0.000100 0.999899
vt 0.000000 0.000000
vn 0.000000 0.342020 0.939693
vn -0.000000 0.000000 -1.000000
vn -0.983178 0.182651 0.000000
vn -0.000000 0.000000 1.000000
vn 0.983178 0.182651 0.000002
vn -0.000000 1.000000 0.000000
vn 0.000000 -1.000000 0.000000
vn 0.000000 -0.342020 -0.939693
vn -1.000000 0.000000 0.000000
vn 1.000000 0.000004 0.000011
vn 0.000000 0.939693 -0.342020
vn 0.000000 -0.939693 0.342020
vn 0.000000 0.342019 0.939693
vn -0.000001 0.342020 0.939693
vn 0.983178 0.182651 -0.000000
vn 1.000000 0.000002 -0.000001
vn 0.000000 0.939692 -0.342020
vn 0.000001 0.342020 0.939693
usemtl Screen
s off
f 18/1/1 20/2/1 17/3/1
f 20/2/1 19/4/1 17/3/1
usemtl Screenframe
f 5/5/2 1/5/2 4/5/2
f 1/5/3 5/5/3 2/5/3
f 7/5/4 3/5/4 2/5/4
f 8/5/5 4/5/5 3/5/5
f 4/5/6 1/5/6 3/5/6
f 6/5/7 5/5/7 8/5/7
f 13/5/8 9/5/8 16/5/8
f 14/5/9 10/5/9 13/5/9
f 16/5/10 12/5/10 11/5/10
f 12/5/11 9/5/11 10/5/11
f 14/5/12 13/5/12 16/5/12
f 14/5/13 15/5/13 18/5/13
f 11/5/13 10/5/13 19/5/13
f 15/5/14 11/5/14 20/5/14
f 10/5/14 14/5/14 17/5/14
f 8/5/2 5/5/2 4/5/2
f 5/5/3 6/5/3 2/5/3
f 6/5/4 7/5/4 2/5/4
f 7/5/15 8/5/15 3/5/15
f 1/5/6 2/5/6 3/5/6
f 7/5/7 6/5/7 8/5/7
f 9/5/8 12/5/8 16/5/8
f 10/5/9 9/5/9 13/5/9
f 15/5/16 16/5/16 11/5/16
f 11/5/17 12/5/17 10/5/17
f 15/5/12 14/5/12 16/5/12
f 17/5/13 14/5/13 18/5/13
f 20/5/13 11/5/13 19/5/13
f 18/5/18 15/5/18 20/5/18
f 19/5/18 10/5/18 17/5/18
