# Blender v2.62 (sub 0) OBJ File: 'ScreenPc1.blend'
# www.blender.org
mtllib pc.mtl
o Screenpc1_Cube.004
v 4.588827 -0.010791 -3.376541
v 4.588827 -0.010791 5.628754
v -4.416471 -0.010792 5.628753
v -4.416469 -0.010791 -3.376543
v 4.588830 2.906225 -3.376539
v 4.588825 2.906225 5.628756
v -4.416471 2.906225 5.628753
v -4.416470 2.906225 -3.376541
v 3.825789 4.176178 3.281753
v 3.825789 4.644813 4.789107
v -3.825790 4.644813 4.789107
v -3.825788 4.176178 3.281751
v 3.825791 11.482782 1.010143
v 3.825787 11.951417 2.517498
v -3.825791 11.951416 2.517495
v -3.825789 11.482782 1.010141
v -3.118926 10.807788 1.219995
v 3.118928 10.807789 1.219997
v -3.118925 4.851171 3.071897
v 3.118926 4.851172 3.071898
v 2.455059 3.914265 -2.177788
v -2.455057 3.914265 -2.177789
v 2.455060 8.603007 -3.635509
v -2.455058 8.603006 -3.635510
v -2.357481 10.478494 2.749160
v 2.357480 10.493830 2.791247
v -2.357481 6.048245 4.363391
v 2.357480 6.063582 4.405478
v -3.023796 5.575171 5.049563
v 3.023795 5.575171 5.049565
v -3.023797 11.350101 3.254147
v 3.023793 11.350102 3.254150
v -3.384518 5.206784 5.079694
v -3.384519 11.670633 3.070094
v 3.384517 5.206784 5.079695
v 3.384515 11.670635 3.070096
vt 0.000000 0.000000
vt 1.000000 0.000000
vt 1.000000 1.000000
vt 0.000000 1.000000
vt 0.000004 0.000000
vt 1.000000 0.000004
vt 0.999996 1.000000
vt 0.000000 0.999996
vn 0.000000 -1.000000 -0.000000
vn 0.000000 1.000000 -0.000000
vn 1.000000 -0.000000 0.000000
vn -0.000000 -0.000000 1.000000
vn -1.000000 -0.000000 -0.000000
vn 0.000000 0.000001 -1.000000
vn -0.000000 -0.954914 0.296881
vn 0.000000 0.954914 -0.296881
vn 1.000000 0.000000 0.000001
vn -1.000000 -0.000000 -0.000001
vn -0.000000 -0.296881 -0.954914
vn -0.000000 0.910527 -0.413451
vn 0.992221 -0.036959 -0.118879
vn -0.992221 -0.036959 -0.118879
vn -0.709540 0.209202 0.672895
vn 0.709540 0.209202 0.672895
vn -0.000000 0.891516 0.452990
vn -0.000000 -0.459313 0.888274
vn -0.000000 0.081517 0.996672
vn -0.000001 0.497957 0.867202
vn 0.218052 0.289737 0.931936
vn -0.218051 0.289738 0.931937
vn -0.658651 0.238443 0.713669
vn -0.002716 -0.488708 0.872443
vn 0.685891 0.230602 0.690200
vn -0.003446 0.810459 0.585784
vn -0.009500 0.342333 0.939531
usemtl Screenframe
s off
f 1/1/1 2/2/1 3/3/1
f 1/1/1 3/3/1 4/4/1
f 5/1/2 8/2/2 7/3/2
f 5/1/2 7/3/2 6/4/2
f 1/1/3 5/2/3 6/3/3
f 1/1/3 6/3/3 2/4/3
f 2/1/4 6/2/4 7/3/4
f 2/1/4 7/3/4 3/4/4
f 3/1/5 7/2/5 8/3/5
f 3/1/5 8/3/5 4/4/5
f 5/1/6 1/2/6 4/3/6
f 5/1/6 4/3/6 8/4/6
f 9/1/7 10/2/7 11/3/7
f 9/1/7 11/3/7 12/4/7
f 13/1/8 16/2/8 15/3/8
f 13/1/8 15/3/8 14/4/8
f 9/1/9 13/2/9 14/3/9
f 9/1/9 14/3/9 10/4/9
f 11/1/10 15/2/10 16/3/10
f 11/1/10 16/3/10 12/4/10
f 12/1/11 16/2/11 17/3/11
f 12/1/11 17/3/11 19/4/11
f 13/1/11 9/2/11 20/3/11
f 13/1/11 20/3/11 18/4/11
f 16/1/11 13/2/11 18/3/11
f 16/1/11 18/3/11 17/4/11
f 9/1/11 12/2/11 19/3/11
f 9/1/11 19/3/11 20/4/11
f 17/1/12 18/2/12 23/3/12
f 17/1/12 23/3/12 24/4/12
f 18/1/13 20/2/13 21/3/13
f 18/1/13 21/3/13 23/4/13
f 19/1/14 17/2/14 24/3/14
f 19/1/14 24/3/14 22/4/14
f 23/1/11 21/2/11 22/3/11
f 23/1/11 22/3/11 24/4/11
f 15/1/15 11/2/15 33/3/15
f 15/1/15 33/3/15 34/4/15
f 10/1/16 14/2/16 36/3/16
f 10/1/16 36/3/16 35/4/16
f 14/1/17 15/2/17 34/3/17
f 14/1/17 34/3/17 36/4/17
f 11/1/18 10/2/18 35/3/18
f 11/1/18 35/3/18 33/4/18
f 33/1/19 35/2/19 30/3/19
f 33/1/19 30/3/19 29/4/19
f 36/1/20 34/2/20 31/3/20
f 36/1/20 31/3/20 32/4/20
f 35/1/21 36/2/21 32/3/21
f 35/1/21 32/3/21 30/4/21
f 34/1/22 33/2/22 29/3/22
f 34/1/22 29/3/22 31/4/22
f 26/1/23 28/2/23 30/3/23
f 26/1/23 30/3/23 32/4/23
f 25/1/24 26/2/24 32/3/24
f 25/1/24 32/3/24 31/4/24
f 25/1/25 31/2/25 29/3/25
f 25/1/25 29/3/25 27/4/25
f 27/1/26 29/2/26 30/3/26
f 27/1/26 30/3/26 28/4/26
usemtl Screen
f 27/5/27 28/6/27 26/7/27
f 27/5/27 26/7/27 25/8/27
