# Blender v2.66 (sub 1) OBJ File: 'ScreenPc2.blend'
# www.blender.org
mtllib pc2.mtl
o Screenpc2_Cube.006
v -5.940765 1.267495 5.046693
v -5.940765 1.818307 0.743048
v 5.940766 1.818307 0.743048
v 5.940763 1.267495 5.046694
v -5.940768 0.027895 5.046692
v -5.940761 0.027895 0.743047
v 5.940767 0.027895 0.743048
v 5.940765 0.027895 5.046693
v 3.585233 0.579922 -1.735614
v 3.585233 1.126251 0.513784
v -4.095609 1.126251 0.513784
v -4.095606 0.579922 -1.735615
v 3.585233 8.043774 -3.548415
v 3.585230 8.590102 -1.299016
v -4.095609 8.590102 -1.299017
v -4.095609 8.043774 -3.548415
v -3.327102 7.296979 -3.367036
v 2.816726 7.296979 -3.367036
v -3.327100 1.326717 -1.916995
v 2.816726 1.326718 -1.916994
v 2.460243 0.410663 -7.198933
v -2.970617 0.410663 -7.198933
v 2.460243 5.688100 -8.480703
v -2.970619 5.688100 -8.480703
v 2.027372 7.041788 -1.118996
v 2.027372 2.674565 0.210547
v -2.537748 7.041788 -1.118996
v -2.537746 2.674565 0.210547
v 4.947512 1.746085 1.307333
v 4.947510 1.339716 4.482409
v -4.947511 1.339716 4.482408
v -4.947511 1.746085 1.307333
v -3.341661 1.858899 0.664473
v -3.341661 7.857454 -0.792441
v 2.831285 1.858899 0.664473
v 2.831283 7.857454 -0.792440
vt 0.000000 0.000000
vt 0.018928 0.987284
vt 0.018929 0.012717
vt 0.976640 0.012716
vt 0.976641 0.987284
vn -0.000000 -1.000000 0.000000
vn -1.000000 0.000003 0.000000
vn 0.000000 0.000001 -1.000000
vn 1.000000 0.000001 0.000001
vn -0.000000 -0.000001 1.000000
vn 0.000000 -0.971749 0.236016
vn 0.000000 0.971749 -0.236016
vn 1.000000 0.000000 0.000001
vn -1.000000 -0.000000 -0.000001
vn -0.000000 -0.236016 -0.971749
vn 0.000000 -0.985292 0.170881
vn 0.000000 0.953902 -0.300120
vn 0.997786 -0.015695 -0.064620
vn -0.997787 -0.015695 -0.064620
vn 0.000000 0.991909 0.126952
vn -0.390023 0.217325 0.894792
vn 0.390024 0.217325 0.894791
vn -0.000000 0.568723 0.822529
vn 0.000000 -0.201459 0.979497
vn -0.237661 0.282895 0.929240
vn -0.000000 -0.371674 0.928363
vn 0.564619 0.240375 0.789573
vn 0.000000 0.486279 0.873803
vn -1.000000 -0.000002 -0.000002
vn 0.000000 -0.000000 -1.000000
vn 1.000000 0.000000 -0.000000
vn -1.000000 -0.000000 0.000000
vn 0.997787 -0.015695 -0.064620
vn 0.390023 0.217325 0.894792
vn -0.535574 0.199312 0.820631
vn 0.000000 -0.371674 0.928364
vn 0.295424 0.225482 0.928376
vn 0.000000 0.486280 0.873803
vn 0.000000 0.291239 0.956650
usemtl Screenframe
s off
f 5/1/1 6/1/1 8/1/1
f 1/1/2 2/1/2 5/1/2
f 2/1/3 3/1/3 6/1/3
f 3/1/4 4/1/4 7/1/4
f 5/1/5 8/1/5 4/1/5
f 11/1/6 12/1/6 9/1/6
f 13/1/7 16/1/7 14/1/7
f 9/1/8 13/1/8 14/1/8
f 11/1/9 15/1/9 12/1/9
f 16/1/10 17/1/10 19/1/10
f 9/1/10 20/1/10 18/1/10
f 13/1/10 18/1/10 16/1/10
f 12/1/10 19/1/10 20/1/10
f 19/1/11 22/1/11 21/1/11
f 18/1/12 23/1/12 24/1/12
f 20/1/13 21/1/13 23/1/13
f 17/1/14 24/1/14 22/1/14
f 22/1/10 24/1/10 23/1/10
f 3/1/15 29/1/15 30/1/15
f 4/1/15 30/1/15 31/1/15
f 1/1/15 31/1/15 32/1/15
f 2/1/15 32/1/15 29/1/15
f 11/1/16 33/1/16 15/1/16
f 14/1/17 36/1/17 10/1/17
f 15/1/18 34/1/18 14/1/18
f 10/1/19 35/1/19 33/1/19
f 25/1/20 26/1/20 35/1/20
f 25/1/21 36/1/21 34/1/21
f 27/1/22 34/1/22 28/1/22
f 26/1/23 28/1/23 33/1/23
f 6/1/1 7/1/1 8/1/1
f 2/1/24 6/1/24 5/1/24
f 3/1/25 7/1/25 6/1/25
f 4/1/4 8/1/4 7/1/4
f 1/1/5 5/1/5 4/1/5
f 10/1/6 11/1/6 9/1/6
f 16/1/7 15/1/7 14/1/7
f 10/1/26 9/1/26 14/1/26
f 15/1/27 16/1/27 12/1/27
f 12/1/10 16/1/10 19/1/10
f 13/1/10 9/1/10 18/1/10
f 18/1/10 17/1/10 16/1/10
f 9/1/10 12/1/10 20/1/10
f 20/1/11 19/1/11 21/1/11
f 17/1/12 18/1/12 24/1/12
f 18/1/28 20/1/28 23/1/28
f 19/1/14 17/1/14 22/1/14
f 21/1/10 22/1/10 23/1/10
f 4/1/15 3/1/15 30/1/15
f 1/1/15 4/1/15 31/1/15
f 2/1/15 1/1/15 32/1/15
f 3/1/15 2/1/15 29/1/15
f 33/1/16 34/1/16 15/1/16
f 36/1/29 35/1/29 10/1/29
f 34/1/18 36/1/18 14/1/18
f 11/1/19 10/1/19 33/1/19
f 36/1/30 25/1/30 35/1/30
f 27/1/31 25/1/31 34/1/31
f 34/1/32 33/1/32 28/1/32
f 35/1/33 26/1/33 33/1/33
usemtl Screen
f 27/2/34 28/3/34 26/4/34
f 25/5/34 27/2/34 26/4/34
usemtl Keyboard2
f 31/1/15 30/1/15 32/1/15
f 30/1/15 29/1/15 32/1/15
