# Blender v2.62 (sub 0) OBJ File: 'Snake1.blend'
# www.blender.org
mtllib snake.mtl
o Snake1_Cube.566
v -6.321639 -0.464483 -0.726373
v -6.321639 -1.215128 -0.726373
v -8.149242 -1.215128 -0.726373
v -8.149242 -0.464483 -0.726373
v -6.321639 -0.464483 0.024273
v -6.321640 -1.215129 0.024272
v -8.149242 -1.215128 0.024272
v -8.149242 -0.464483 0.024273
v -4.501335 0.192301 -0.091744
v -4.501335 0.192301 0.658901
v -4.501335 -0.558344 -0.091744
v -4.501335 -0.558344 0.658901
v -2.468849 0.676115 -1.097024
v -2.468849 1.426760 -1.097024
v -2.468849 0.676115 -0.346379
v -2.468849 1.426760 -0.346379
v -0.118210 0.718699 -1.841805
v -0.118210 0.718699 -1.091160
v -0.118210 -0.031946 -1.091160
v -0.118210 -0.031946 -1.841805
v 2.776268 -0.276334 -2.210442
v 2.776268 -1.026979 -2.210442
v 2.776268 -1.026979 -1.459797
v 2.776268 -0.276334 -1.459797
v 5.352661 0.278083 -1.397347
v 5.352661 0.278083 -0.646702
v 5.352661 -0.472562 -0.646702
v 5.352661 -0.472562 -1.397347
v 8.193610 2.270003 -2.307877
v 8.193610 1.519359 -2.307877
v 8.193610 1.519358 -1.557232
v 8.193610 2.270003 -1.557232
vn 0.045869 0.632252 -0.773370
vn 0.210028 -0.692099 -0.690512
vn -0.577349 -0.577349 -0.577349
vn -0.577349 0.577349 -0.577349
vn -0.257759 0.681387 0.684988
vn -0.577349 0.577349 0.577349
vn -0.577349 -0.577349 0.577349
vn 0.053438 -0.772149 0.633137
vn -0.139317 0.578600 0.803613
vn -0.427137 0.680410 -0.595447
vn 0.379406 -0.723869 -0.576220
vn 0.243904 -0.601886 0.760399
vn -0.255013 0.760002 -0.597766
vn -0.294290 -0.583087 -0.757195
vn 0.417280 -0.569048 0.708548
vn 0.057680 0.797052 0.601123
vn 0.368480 0.674398 0.639821
vn 0.048982 0.684652 -0.727195
vn -0.345561 -0.629871 -0.695578
vn -0.085269 -0.709342 0.699667
vn 0.111667 0.586688 -0.802057
vn 0.013886 -0.717643 -0.696219
vn -0.095950 -0.799982 0.592242
vn -0.027741 0.691702 0.721610
vn -0.186346 0.557909 0.808679
vn -0.336558 0.662160 -0.669515
vn 0.367931 -0.729637 -0.576373
vn 0.219428 -0.645772 0.731284
vn 0.340678 0.709586 -0.616749
vn 0.583148 -0.376598 -0.719779
vn 0.790155 -0.360576 0.495560
vn 0.422010 0.768761 0.480483
usemtl Light
s 1
f 1//1 2//2 3//3
f 1//1 3//3 4//4
f 5//5 8//6 7//7
f 5//5 7//7 6//8
f 2//2 6//8 7//7
f 2//2 7//7 3//3
f 3//3 7//7 8//6
f 3//3 8//6 4//4
f 5//5 1//1 4//4
f 5//5 4//4 8//6
f 1//1 5//5 10//9
f 1//1 10//9 9//10
f 6//8 2//2 11//11
f 6//8 11//11 12//12
f 5//5 6//8 12//12
f 5//5 12//12 10//9
f 2//2 1//1 9//10
f 2//2 9//10 11//11
f 11//11 9//10 14//13
f 11//11 14//13 13//14
f 10//9 12//12 15//15
f 10//9 15//15 16//16
f 12//12 11//11 13//14
f 12//12 13//14 15//15
f 9//10 10//9 16//16
f 9//10 16//16 14//13
f 14//13 16//16 18//17
f 14//13 18//17 17//18
f 15//15 13//14 20//19
f 15//15 20//19 19//20
f 16//16 15//15 19//20
f 16//16 19//20 18//17
f 13//14 14//13 17//18
f 13//14 17//18 20//19
f 20//19 17//18 21//21
f 20//19 21//21 22//22
f 18//17 19//20 23//23
f 18//17 23//23 24//24
f 19//20 20//19 22//22
f 19//20 22//22 23//23
f 17//18 18//17 24//24
f 17//18 24//24 21//21
f 21//21 24//24 26//25
f 21//21 26//25 25//26
f 23//23 22//22 28//27
f 23//23 28//27 27//28
f 24//24 23//23 27//28
f 24//24 27//28 26//25
f 22//22 21//21 25//26
f 22//22 25//26 28//27
f 28//27 25//26 29//29
f 28//27 29//29 30//30
f 26//25 27//28 31//31
f 26//25 31//31 32//32
f 27//28 28//27 30//30
f 27//28 30//30 31//31
f 25//26 26//25 32//32
f 25//26 32//32 29//29
f 29//29 32//32 31//31
f 29//29 31//31 30//30
