# Blender v2.66 (sub 1) OBJ File: 'Speaker1.blend'
# www.blender.org
mtllib speaker1.mtl
o Speaker1_Cube.009
v 4.896540 3.961079 -1.656776
v 4.896540 3.961079 1.656776
v -4.896541 3.961079 1.656776
v -4.896539 3.961079 -1.656776
v 4.896543 0.012424 -1.656775
v 4.896537 0.012424 1.656777
v -4.896543 0.012424 1.656775
v -4.896540 0.012424 -1.656776
v -1.891971 1.732785 2.089904
v -1.564359 1.575824 1.589904
v -2.106143 1.089697 1.589904
v -2.226811 1.432341 2.089904
v -2.676024 1.456665 2.089904
v -2.832985 1.129053 1.589904
v -3.319112 1.670836 1.589904
v -2.976467 1.791505 2.089904
v -2.422058 1.986752 2.280888
v -2.952145 2.240718 2.089904
v -3.279756 2.397679 1.589904
v -2.737972 2.883806 1.589904
v -2.617304 2.541162 2.089904
v -2.168091 2.516839 2.089904
v -2.011130 2.844450 1.589904
v -1.525004 2.302666 1.589904
v -1.867648 2.181998 2.089904
v -0.830117 2.547384 1.668270
v -1.692812 3.508852 1.668270
v -2.982690 3.578693 1.668270
v -3.944158 2.715997 1.668270
v -4.013999 1.426118 1.668270
v -3.151302 0.464651 1.668270
v -1.861425 0.394809 1.668270
v -0.899957 1.257507 1.668270
v -0.731859 1.176970 1.718448
v -1.799509 0.218998 1.718448
v -3.231839 0.296553 1.718448
v -4.189810 1.364203 1.718448
v -4.112256 2.796534 1.718448
v -3.044606 3.754505 1.718448
v -1.612275 3.676950 1.718448
v -0.654305 2.609300 1.718448
v -0.496311 2.664940 1.653976
v -1.539901 3.828013 1.653976
v -3.100246 3.912499 1.653976
v -4.263319 2.868908 1.653976
v -4.347804 1.308562 1.653976
v -3.304213 0.145490 1.653976
v -1.743868 0.061003 1.653976
v -0.580796 1.104595 1.653976
v 3.810800 1.373691 1.739821
v 3.002516 0.648440 1.739821
v 1.918144 0.707155 1.739821
v 1.192894 1.515439 1.739821
v 1.251608 2.599812 1.739821
v 2.059893 3.325062 1.739821
v 3.144265 3.266348 1.739821
v 3.869514 2.458063 1.739821
v 3.759715 2.419395 1.784627
v 3.093967 3.161366 1.784627
v 2.098561 3.215263 1.784627
v 1.356590 2.549515 1.784627
v 1.302693 1.554107 1.784627
v 1.968442 0.812137 1.784627
v 2.963848 0.758240 1.784627
v 3.705819 1.423989 1.784627
v 3.588998 1.479958 1.749755
v 2.920820 0.880421 1.749755
v 2.024411 0.928958 1.749755
v 1.424875 1.597136 1.749755
v 1.473411 2.493545 1.749755
v 2.141589 3.093081 1.749755
v 3.037998 3.044545 1.749755
v 3.637534 2.376367 1.749755
v 2.916495 2.122439 2.042773
v 3.154618 2.206298 1.695294
v 2.816781 2.582814 1.695294
v 2.707700 2.355139 2.042773
v 2.395517 2.372042 2.042773
v 2.311657 2.610165 1.695294
v 1.935141 2.272328 1.695294
v 2.162817 2.163247 2.042773
v 2.531204 1.986751 2.175498
v 2.145914 1.851064 2.042773
v 1.907791 1.767204 1.695294
v 2.245628 1.390688 1.695294
v 2.354708 1.618364 2.042773
v 2.666892 1.601461 2.042773
v 2.750751 1.363338 1.695294
v 3.127268 1.701175 1.695294
v 2.899591 1.810256 2.042773
v -0.000000 3.961079 1.656776
v -0.000003 0.012424 1.656776
v 4.896539 1.986751 1.656776
v -4.896542 1.986751 1.656775
v 2.448270 3.961079 1.656776
v -2.448271 3.961079 1.656776
v 2.448267 0.012424 1.656776
v -2.448273 0.012424 1.656776
v 4.896540 2.973915 1.656776
v 4.896538 0.999588 1.656777
v -4.896542 2.973915 1.656775
v -4.896542 0.999588 1.656775
vn 0.000000 -0.000000 -1.000000
vn 0.000000 1.000000 0.000000
vn -0.000000 -1.000000 0.000000
vn 1.000000 0.000001 0.000001
vn -1.000000 0.000000 -0.000001
vn 1.000000 -0.000000 0.000002
vn 1.000000 -0.000001 0.000002
vn 1.000000 -0.000001 -0.000000
vn 1.000000 -0.000000 0.000000
vn -1.000000 0.000000 -0.000000
vn -1.000000 0.000001 -0.000001
vn -0.001806 -0.033356 0.999442
vn 0.000000 -0.057531 0.998344
vn 0.001513 -0.001686 0.999997
vn 0.004421 -0.000000 0.999990
vn 0.004781 -0.000259 0.999989
vn 0.005101 -0.000000 0.999987
vn 0.001635 0.001467 0.999998
vn -0.000000 0.021033 0.999779
vn 0.001747 0.032265 0.999478
vn -0.000000 0.057535 0.998344
vn -0.001557 0.001736 0.999997
vn -0.032644 -0.029291 0.999038
vn -0.043569 -0.020609 0.998838
vn -0.048955 0.002651 0.998797
vn 0.000000 -0.021034 0.999779
vn -0.001687 -0.001514 0.999997
vn -0.000000 -0.118690 0.992931
vn -0.006699 -0.123726 0.992294
vn -0.000000 -0.129471 0.991583
vn 0.031869 -0.035517 0.998861
vn 0.076264 0.000000 0.997088
vn 0.078654 -0.004259 0.996893
vn 0.080597 0.000000 0.996747
vn 0.034919 0.031331 0.998899
vn -0.000000 0.118691 0.992931
vn 0.006789 0.125392 0.992084
vn -0.000000 0.129472 0.991583
vn -0.029964 0.033395 0.998993
vn -0.048438 0.016391 0.998692
vn -0.048955 0.002651 0.998798
vn 0.571398 -0.273751 0.773644
vn 0.263375 -0.126164 0.956389
vn 0.275460 0.096988 0.956389
vn 0.000000 0.000000 1.000000
vn 0.597613 0.210456 0.773644
vn 0.210456 -0.597613 0.773644
vn 0.096988 -0.275460 0.956389
vn -0.273751 -0.571398 0.773644
vn -0.126164 -0.263375 0.956389
vn -0.597613 -0.210456 0.773644
vn -0.275460 -0.096988 0.956389
vn -0.571398 0.273751 0.773644
vn -0.263375 0.126164 0.956389
vn -0.210456 0.597613 0.773644
vn -0.096988 0.275460 0.956389
vn 0.273751 0.571398 0.773644
vn 0.126164 0.263375 0.956389
vn -0.190710 -0.067141 0.979339
vn -0.182348 0.087344 0.979339
vn 0.121128 0.042634 0.991699
vn -0.067141 0.190710 0.979339
vn 0.115818 -0.055483 0.991699
vn 0.087344 0.182348 0.979339
vn -0.055483 -0.115818 0.991699
vn 0.190710 0.067141 0.979339
vn -0.121128 -0.042634 0.991699
vn 0.182348 -0.087344 0.979339
vn -0.115818 0.055483 0.991699
vn 0.067141 -0.190710 0.979339
vn -0.042634 0.121128 0.991699
vn -0.087344 -0.182348 0.979339
vn 0.055483 0.115818 0.991699
vn 0.107883 0.049623 0.992920
vn 0.059389 0.113956 0.991699
vn -0.122196 0.059206 0.990722
vn -0.127537 -0.045564 0.990753
vn -0.059389 -0.113926 0.991699
vn 0.042634 -0.121128 0.991699
vn 0.045839 -0.101444 0.993774
vn 0.104923 -0.063143 0.992462
vn 0.161412 -0.068606 0.984466
vn 0.049898 -0.193793 0.979766
vn -0.066347 -0.181921 0.981048
vn -0.156194 -0.053652 0.986236
vn -0.149876 0.070589 0.986175
vn 0.066836 0.181951 0.981017
vn 0.170049 0.051454 0.984069
vn -0.045839 0.101444 0.993774
vn -0.049257 0.193945 0.979766
vn -0.085133 -0.076387 0.993437
vn -0.006184 -0.114212 0.993437
vn 0.076387 -0.085133 0.993437
vn 0.114212 -0.006184 0.993437
vn 0.085133 0.076387 0.993437
vn 0.006184 0.114212 0.993437
vn -0.076387 0.085133 0.993437
vn -0.114212 0.006184 0.993437
usemtl WWood
s off
f 5//1 8//1 4//1
f 4//2 91//2 1//2
f 92//3 8//3 5//3
f 93//4 5//4 1//4
f 94//5 4//5 8//5
f 95//2 2//2 1//2
f 91//2 95//2 1//2
f 91//2 4//2 96//2
f 96//2 4//2 3//2
f 7//3 8//3 98//3
f 98//3 8//3 92//3
f 92//3 5//3 97//3
f 97//3 5//3 6//3
f 6//6 5//6 100//6
f 100//7 5//7 93//7
f 99//8 93//8 1//8
f 2//9 99//9 1//9
f 3//5 4//5 101//5
f 101//5 4//5 94//5
f 94//10 8//10 102//10
f 102//11 8//11 7//11
f 43//12 96//12 44//12
f 3//13 44//13 96//13
f 3//14 45//14 44//14
f 3//15 101//15 45//15
f 45//15 101//15 94//15
f 45//16 94//16 46//16
f 46//17 94//17 102//17
f 7//17 46//17 102//17
f 7//18 47//18 46//18
f 7//19 98//19 47//19
f 47//20 98//20 48//20
f 48//21 98//21 92//21
f 48//22 92//22 49//22
f 52//23 53//23 92//23
f 49//24 92//24 53//24
f 42//25 49//25 54//25
f 43//26 91//26 96//26
f 42//27 91//27 43//27
f 52//28 92//28 97//28
f 51//29 52//29 97//29
f 6//30 51//30 97//30
f 6//31 50//31 51//31
f 6//32 100//32 50//32
f 50//32 100//32 93//32
f 50//33 93//33 57//33
f 57//34 93//34 99//34
f 2//34 57//34 99//34
f 2//35 56//35 57//35
f 2//36 95//36 56//36
f 55//37 56//37 95//37
f 55//38 95//38 91//38
f 54//39 55//39 91//39
f 42//40 54//40 91//40
f 1//1 5//1 4//1
f 49//41 53//41 54//41
usemtl Speaker
s 1
f 9//42 10//43 24//44
f 17//45 9//42 25//46
f 17//45 12//47 9//42
f 12//47 11//48 10//43
f 13//49 14//50 12//47
f 17//45 13//49 12//47
f 17//45 16//51 13//49
f 16//51 15//52 13//49
f 18//53 19//54 16//51
f 17//45 18//53 16//51
f 17//45 21//55 18//53
f 21//55 20//56 18//53
f 22//57 23//58 20//56
f 17//45 22//57 21//55
f 17//45 25//46 22//57
f 25//46 24//44 23//58
f 26//59 33//60 41//61
f 33//60 32//62 34//63
f 32//62 31//64 36//65
f 31//64 30//66 37//67
f 30//66 29//68 38//69
f 29//68 28//70 39//71
f 28//70 27//72 39//71
f 27//72 26//59 40//73
f 40//73 41//61 42//74
f 39//71 40//73 43//75
f 38//69 39//71 45//76
f 37//67 38//69 46//77
f 36//65 37//67 47//78
f 35//79 36//65 48//80
f 34//63 35//79 48//80
f 41//61 34//63 49//81
f 58//61 65//63 50//82
f 65//63 64//79 51//83
f 64//79 63//65 51//83
f 63//65 62//67 52//84
f 62//67 61//69 53//85
f 61//69 60//71 54//86
f 60//71 59//73 56//87
f 59//73 58//61 57//88
f 72//72 73//59 59//73
f 71//70 72//72 60//71
f 70//68 71//70 60//71
f 69//66 70//68 61//69
f 68//64 69//66 62//67
f 67//62 68//64 63//65
f 66//60 67//62 65//63
f 73//59 66//60 58//61
f 74//46 75//44 76//58
f 82//45 74//46 77//57
f 82//45 77//57 78//55
f 77//57 76//58 79//56
f 78//55 79//56 81//53
f 82//45 78//55 81//53
f 82//45 81//53 83//51
f 81//53 80//54 83//51
f 83//51 84//52 86//49
f 82//45 83//51 86//49
f 82//45 86//49 87//47
f 86//49 85//50 87//47
f 87//47 88//48 89//43
f 82//45 87//47 90//42
f 82//45 90//42 74//46
f 90//42 89//43 75//44
f 25//46 9//42 24//44
f 9//42 12//47 10//43
f 14//50 11//48 12//47
f 15//52 14//50 13//49
f 19//54 15//52 16//51
f 20//56 19//54 18//53
f 21//55 22//57 20//56
f 22//57 25//46 23//58
f 33//60 34//63 41//61
f 32//62 35//79 34//63
f 35//79 32//62 36//65
f 36//65 31//64 37//67
f 37//67 30//66 38//69
f 38//69 29//68 39//71
f 27//72 40//73 39//71
f 26//59 41//61 40//73
f 43//75 40//73 42//74
f 44//89 39//71 43//75
f 39//71 44//89 45//76
f 38//69 45//76 46//77
f 37//67 46//77 47//78
f 36//65 47//78 48//80
f 49//81 34//63 48//80
f 42//74 41//61 49//81
f 57//88 58//61 50//82
f 50//82 65//63 51//83
f 63//65 52//84 51//83
f 62//67 53//85 52//84
f 61//69 54//86 53//85
f 60//71 55//90 54//86
f 55//90 60//71 56//87
f 56//87 59//73 57//88
f 73//59 58//61 59//73
f 72//72 59//73 60//71
f 61//69 70//68 60//71
f 62//67 69//66 61//69
f 63//65 68//64 62//67
f 64//79 67//62 63//65
f 67//62 64//79 65//63
f 66//60 65//63 58//61
f 77//57 74//46 76//58
f 78//55 77//57 79//56
f 79//56 80//54 81//53
f 80//54 84//52 83//51
f 84//52 85//50 86//49
f 85//50 88//48 87//47
f 90//42 87//47 89//43
f 74//46 90//42 75//44
usemtl Blackspekaer
s off
f 23//91 24//91 27//91
f 20//92 23//92 28//92
f 19//93 20//93 28//93
f 15//94 19//94 30//94
f 14//95 15//95 30//95
f 11//96 14//96 31//96
f 10//97 11//97 33//97
f 24//98 10//98 26//98
f 75//98 89//98 73//98
f 89//97 88//97 66//97
f 88//96 85//96 68//96
f 85//95 84//95 69//95
f 84//94 80//94 69//94
f 80//93 79//93 71//93
f 79//92 76//92 71//92
f 76//91 75//91 72//91
f 24//91 26//91 27//91
f 23//92 27//92 28//92
f 29//93 19//93 28//93
f 19//94 29//94 30//94
f 31//95 14//95 30//95
f 32//96 11//96 31//96
f 11//97 32//97 33//97
f 10//98 33//98 26//98
f 89//98 66//98 73//98
f 88//97 67//97 66//97
f 67//96 88//96 68//96
f 68//95 85//95 69//95
f 80//94 70//94 69//94
f 70//93 80//93 71//93
f 76//92 72//92 71//92
f 75//91 73//91 72//91
