# Blender v2.66 (sub 1) OBJ File: 'Speaker2.blend'
# www.blender.org
mtllib speaker2.mtl
o Speaker2_Cube.565
v 3.971568 0.023896 -3.971568
v 3.971568 0.023896 3.971568
v -3.971569 0.023896 3.971567
v -3.971567 0.023896 -3.971570
v 3.971570 7.967032 -3.971566
v 3.971565 7.967032 3.971570
v -3.971570 7.967032 3.971567
v -3.971568 7.967032 -3.971568
v 0.707107 3.991939 3.989062
v 1.000000 3.991939 3.281955
v 0.707107 4.699046 3.281955
v 0.500000 4.491939 3.989062
v -0.000000 4.699046 3.989062
v -0.000000 4.991939 3.281955
v -0.707107 4.699046 3.281955
v -0.500000 4.491939 3.989062
v 0.000000 3.991939 4.281955
v -0.707107 3.991939 3.989062
v -1.000000 3.991939 3.281955
v -0.707107 3.284832 3.281955
v -0.500000 3.491939 3.989062
v 0.000000 3.284832 3.989062
v 0.000000 2.991939 3.281955
v 0.707107 3.284832 3.281955
v 0.500000 3.491939 3.989062
v 1.324375 2.667565 3.115190
v 0.000001 2.118991 3.115190
v -1.324374 2.667564 3.115190
v -1.872949 3.991939 3.115190
v -1.324375 5.316313 3.115189
v -0.000000 5.864887 3.115189
v 1.324375 5.316314 3.115189
v 1.872949 3.991939 3.115189
v 3.192573 3.991939 4.094460
v 2.257490 6.249429 4.094460
v -0.000000 7.184511 4.094460
v -2.257490 6.249428 4.094460
v -3.192573 3.991939 4.094461
v -2.257489 1.734448 4.094461
v 0.000001 0.799366 4.094461
v 2.257490 1.734450 4.094461
v 2.407675 1.584265 4.164223
v 0.000001 0.586974 4.164223
v -2.407674 1.584264 4.164223
v -3.404965 3.991939 4.164223
v -2.407675 6.399612 4.164222
v -0.000000 7.396904 4.164222
v 2.407674 6.399613 4.164222
v 3.404965 3.991939 4.164222
v 3.673758 3.991939 3.943065
v 2.597739 6.589678 3.943065
v -0.000000 7.665696 3.943065
v -2.597739 6.589677 3.943065
v -3.673758 3.991939 3.943066
v -2.597738 1.394199 3.943066
v 0.000001 0.318182 3.943066
v 2.597739 1.394201 3.943066
v -0.000000 0.023896 3.971568
v -0.000002 7.967032 3.971569
v 3.971567 3.995464 3.971569
v -3.971569 3.995464 3.971567
vn 0.000000 0.000000 -1.000000
vn 0.000000 -1.000000 -0.000000
vn 0.000000 1.000000 -0.000000
vn 1.000000 -0.000000 0.000000
vn 1.000000 0.000000 0.000001
vn -1.000000 -0.000000 -0.000000
vn -0.000000 0.096399 0.995343
vn -0.006087 0.014695 0.999873
vn -0.014679 0.006080 0.999874
vn -0.095277 -0.000000 0.995451
vn -0.014659 -0.006072 0.999874
vn -0.006065 -0.014643 0.999874
vn -0.000000 -0.094170 0.995556
vn 0.006065 -0.014641 0.999874
vn 0.014657 -0.006071 0.999874
vn 0.095266 0.000000 0.995452
vn 0.014679 0.006080 0.999874
vn 0.006087 0.014694 0.999874
vn 0.549455 0.000000 0.835505
vn 0.388531 -0.388531 0.835505
vn -0.221625 0.221625 0.949583
vn 0.000000 -0.549455 0.835505
vn 0.000000 0.313425 0.949583
vn -0.388531 -0.388531 0.835505
vn -0.549455 0.000000 0.835505
vn 0.221625 0.221625 0.949583
vn -0.388531 0.388531 0.835505
vn 0.313425 0.000000 0.949583
vn 0.000000 0.549455 0.835505
vn 0.221625 -0.221625 0.949583
vn 0.388531 0.388531 0.835505
vn -0.221625 -0.221625 0.949583
vn -0.313425 0.000000 0.949583
vn -0.302225 -0.302225 0.904050
vn 0.000000 -0.313425 0.949583
vn 0.000000 -0.427412 0.904050
vn 0.302225 -0.302225 0.904050
vn 0.427412 0.000000 0.904050
vn 0.302225 0.302225 0.904050
vn -0.302225 0.302225 0.904050
vn -0.427412 0.000000 0.904050
vn 0.000000 0.427412 0.904050
vn 0.748589 0.000000 0.662984
vn 0.000000 0.000000 1.000000
vn 0.529344 0.529344 0.662984
vn 0.000000 0.748589 0.662984
vn -0.529344 0.529344 0.662984
vn -0.748589 0.000000 0.662984
vn -0.529344 -0.529344 0.662984
vn 0.000000 -0.748589 0.662984
vn 0.529344 -0.529344 0.662984
vn 0.294473 0.000000 0.955657
vn 0.208197 -0.208197 0.955657
vn -0.208197 -0.208197 0.955657
vn -0.294473 0.000000 0.955657
vn -0.208197 0.208197 0.955657
vn 0.000000 0.294473 0.955657
vn 0.208197 0.208197 0.955657
vn 0.212378 0.000000 0.977172
vn 0.176794 0.176794 0.968230
vn -0.176794 0.176794 0.968230
vn -0.212378 0.000000 0.977172
vn -0.176794 -0.176763 0.968230
vn 0.000000 -0.294473 0.955657
vn 0.000000 -0.211829 0.977294
vn 0.176794 -0.176763 0.968230
vn 0.000000 0.212928 0.977050
usemtl Brown
s off
f 5//1 1//1 4//1
f 4//2 1//2 58//2
f 58//2 1//2 2//2
f 58//2 3//2 4//2
f 59//3 5//3 8//3
f 7//3 59//3 8//3
f 59//3 6//3 5//3
f 60//4 1//4 5//4
f 6//5 60//5 5//5
f 2//4 1//4 60//4
f 61//6 8//6 4//6
f 3//6 61//6 4//6
f 61//6 7//6 8//6
f 2//7 56//7 58//7
f 2//8 57//8 56//8
f 2//9 50//9 57//9
f 2//10 60//10 50//10
f 6//10 50//10 60//10
f 6//11 51//11 50//11
f 6//12 52//12 51//12
f 6//13 59//13 52//13
f 7//13 52//13 59//13
f 7//14 53//14 52//14
f 7//15 54//15 53//15
f 7//16 61//16 54//16
f 3//16 54//16 61//16
f 3//17 55//17 54//17
f 3//18 56//18 55//18
f 3//7 58//7 56//7
f 8//1 5//1 4//1
usemtl Blackspekaer
s 1
f 10//19 24//20 26//21
f 24//20 23//22 27//23
f 23//22 20//24 27//23
f 20//24 19//25 28//26
f 19//25 15//27 29//28
f 15//27 14//29 30//30
f 14//29 11//31 32//32
f 11//31 10//19 33//33
f 32//32 33//33 35//34
f 31//35 32//32 36//36
f 30//30 31//35 36//36
f 29//28 30//30 37//37
f 28//26 29//28 38//38
f 27//23 28//26 39//39
f 26//21 27//23 41//40
f 33//33 26//21 34//41
f 33//33 10//19 26//21
f 26//21 24//20 27//23
f 20//24 28//26 27//23
f 19//25 29//28 28//26
f 15//27 30//30 29//28
f 14//29 31//35 30//30
f 31//35 14//29 32//32
f 32//32 11//31 33//33
f 33//33 34//41 35//34
f 32//32 35//34 36//36
f 37//37 30//30 36//36
f 38//38 29//28 37//37
f 39//39 28//26 38//38
f 40//42 27//23 39//39
f 27//23 40//42 41//40
f 26//21 41//40 34//41
usemtl Metallic
f 9//43 10//19 11//31
f 17//44 9//43 12//45
f 17//44 12//45 13//46
f 12//45 11//31 14//29
f 13//46 14//29 16//47
f 17//44 13//46 16//47
f 17//44 16//47 18//48
f 16//47 15//27 18//48
f 18//48 19//25 21//49
f 17//44 18//48 21//49
f 17//44 21//49 22//50
f 21//49 20//24 22//50
f 22//50 23//22 24//20
f 17//44 22//50 25//51
f 17//44 25//51 9//43
f 25//51 24//20 10//19
f 34//41 41//40 49//52
f 41//40 40//42 42//53
f 40//42 39//39 44//54
f 39//39 38//38 45//55
f 38//38 37//37 46//56
f 37//37 36//36 47//57
f 36//36 35//34 47//57
f 35//34 34//41 48//58
f 48//58 49//52 50//59
f 47//57 48//58 51//60
f 46//56 47//57 53//61
f 45//55 46//56 54//62
f 44//54 45//55 55//63
f 43//64 44//54 56//65
f 42//53 43//64 56//65
f 49//52 42//53 57//66
f 12//45 9//43 11//31
f 13//46 12//45 14//29
f 14//29 15//27 16//47
f 15//27 19//25 18//48
f 19//25 20//24 21//49
f 20//24 23//22 22//50
f 25//51 22//50 24//20
f 9//43 25//51 10//19
f 41//40 42//53 49//52
f 40//42 43//64 42//53
f 43//64 40//42 44//54
f 44//54 39//39 45//55
f 45//55 38//38 46//56
f 46//56 37//37 47//57
f 35//34 48//58 47//57
f 34//41 49//52 48//58
f 51//60 48//58 50//59
f 52//67 47//57 51//60
f 47//57 52//67 53//61
f 46//56 53//61 54//62
f 45//55 54//62 55//63
f 44//54 55//63 56//65
f 57//66 42//53 56//65
f 50//59 49//52 57//66
