# Blender v2.66 (sub 1) OBJ File: 'Speaker3.blend'
# www.blender.org
mtllib speaker3.mtl
o Speaker3_Cube.564
v -1.974327 9.808140 -1.656776
v -1.974327 9.808140 1.656776
v -1.974328 0.015058 1.656776
v -1.974328 0.015060 -1.656776
v 1.974328 9.808142 -1.656775
v 1.974328 9.808136 1.656777
v 1.974327 0.015057 1.656775
v 1.974327 0.015059 -1.656776
v 0.253967 3.019629 1.603069
v 0.410927 3.347240 1.103069
v 0.897054 2.805457 1.103069
v 0.554410 2.684788 1.603069
v 0.530087 2.235575 1.603069
v 0.857699 2.078614 1.103069
v 0.315915 1.592488 1.103069
v 0.195246 1.935132 1.603069
v -0.000000 2.489542 1.794052
v -0.253967 1.959455 1.603069
v -0.410927 1.631843 1.103069
v -0.897054 2.173627 1.103069
v -0.554410 2.294296 1.603069
v -0.530087 2.743509 1.603069
v -0.857699 2.900469 1.103069
v -0.315915 3.386595 1.103069
v -0.195246 3.043952 1.603069
v -0.560633 4.081483 1.668270
v -1.522100 3.218787 1.668270
v -1.591942 1.928909 1.668270
v -0.729246 0.967441 1.668270
v 0.560633 0.897601 1.668270
v 1.522100 1.760297 1.668270
v 1.591942 3.050174 1.668270
v 0.729245 4.011642 1.668270
v 0.809781 4.179740 1.718448
v 1.767754 3.112090 1.718448
v 1.690198 1.679760 1.718448
v 0.622549 0.721789 1.718448
v -0.809782 0.799343 1.718448
v -1.767754 1.866994 1.718448
v -1.690199 3.299324 1.718448
v -0.622548 4.257294 1.718448
v -0.678189 4.415288 1.653976
v -1.841262 3.371699 1.653976
v -1.925748 1.811353 1.653976
v -0.882157 0.648281 1.653976
v 0.678189 0.563795 1.653976
v 1.841261 1.607386 1.653976
v 1.925748 3.167731 1.653976
v 0.882156 4.330803 1.653976
v 0.613061 8.722400 1.739821
v 1.338311 7.914115 1.739821
v 1.279597 6.829743 1.739821
v 0.471312 6.104493 1.739821
v -0.613060 6.163207 1.739821
v -1.338310 6.971492 1.739821
v -1.279596 8.055864 1.739821
v -0.471311 8.781113 1.739821
v -0.432644 8.671314 1.784627
v -1.174614 8.005567 1.784627
v -1.228511 7.010159 1.784627
v -0.562763 6.268189 1.784627
v 0.432644 6.214293 1.784627
v 1.174615 6.880041 1.784627
v 1.228512 7.875447 1.784627
v 0.562763 8.617418 1.784627
v 0.506794 8.500597 1.749755
v 1.106331 7.832419 1.749755
v 1.057793 6.936010 1.749755
v 0.389616 6.336474 1.749755
v -0.506793 6.385010 1.749755
v -1.106330 7.053188 1.749755
v -1.057793 7.949597 1.749755
v -0.389615 8.549133 1.749755
v -0.135687 7.828094 1.662407
v -0.219547 8.066216 1.314929
v -0.596063 7.728380 1.314929
v -0.368387 7.619299 1.662407
v -0.385291 7.307116 1.662407
v -0.623413 7.223256 1.314929
v -0.285576 6.846740 1.314929
v -0.176496 7.074416 1.662407
v 0.000000 7.442803 1.795132
v 0.135688 7.057513 1.662407
v 0.219548 6.819390 1.314929
v 0.596063 7.157227 1.314929
v 0.368388 7.266308 1.662407
v 0.385291 7.578491 1.662407
v 0.623414 7.662351 1.314929
v 0.285577 8.038867 1.314929
v 0.176496 7.811191 1.662407
v -1.974328 4.911599 1.656776
v 1.974328 4.911596 1.656776
v 0.000000 9.808138 1.656776
v -0.000000 0.015058 1.656775
v -1.974327 7.359869 1.656776
v -1.974328 2.463329 1.656776
v 1.974328 7.359866 1.656776
v 1.974327 2.463326 1.656776
v -0.987163 9.808139 1.656776
v 0.987164 9.808137 1.656777
v -0.987164 0.015058 1.656775
v 0.987163 0.015058 1.656775
vn 0.000000 0.000000 -1.000000
vn -1.000000 0.000000 0.000000
vn 1.000000 -0.000000 -0.000000
vn -0.000000 1.000000 0.000001
vn -0.000000 -1.000000 -0.000001
vn 0.000001 1.000000 0.000002
vn 0.000001 1.000000 0.000000
vn -0.000000 -1.000000 -0.000000
vn -0.000001 -1.000000 -0.000001
vn 0.033356 -0.001806 0.999442
vn 0.057531 -0.000000 0.998344
vn 0.001686 0.001513 0.999997
vn 0.000000 0.004421 0.999990
vn 0.000259 0.004781 0.999988
vn 0.000000 0.005101 0.999987
vn -0.001467 0.001635 0.999998
vn -0.021033 -0.000000 0.999779
vn -0.032265 0.001747 0.999478
vn -0.057535 -0.000000 0.998344
vn -0.001736 -0.001557 0.999997
vn 0.029291 -0.032644 0.999038
vn 0.020609 -0.043569 0.998838
vn -0.002651 -0.048955 0.998797
vn 0.021034 -0.000000 0.999779
vn 0.001514 -0.001687 0.999997
vn 0.118690 -0.000000 0.992931
vn 0.123726 -0.006699 0.992294
vn 0.129471 -0.000000 0.991583
vn 0.035517 0.031869 0.998861
vn -0.000000 0.076264 0.997088
vn 0.004259 0.078654 0.996893
vn -0.000000 0.080597 0.996747
vn -0.031331 0.034919 0.998899
vn -0.118691 -0.000000 0.992931
vn -0.125392 0.006789 0.992084
vn -0.129472 0.000000 0.991583
vn -0.033395 -0.029964 0.998993
vn -0.016391 -0.048438 0.998692
vn 0.273751 0.571398 0.773644
vn -0.015381 -0.032136 0.999359
vn 0.011811 -0.033601 0.999359
vn 0.000000 0.000000 1.000000
vn -0.210456 0.597613 0.773644
vn 0.597613 0.210456 0.773644
vn -0.033601 -0.011811 0.999359
vn 0.571398 -0.273751 0.773644
vn -0.032136 0.015381 0.999359
vn 0.210456 -0.597613 0.773644
vn -0.011811 0.033601 0.999359
vn -0.273751 -0.571398 0.773644
vn 0.015381 0.032136 0.999359
vn -0.597613 -0.210456 0.773644
vn 0.033601 0.011811 0.999359
vn -0.571398 0.273751 0.773644
vn 0.032136 -0.015381 0.999359
vn 0.133580 -0.379376 0.915525
vn -0.173772 -0.362743 0.915525
vn -0.042634 0.121128 0.991699
vn -0.379376 -0.133580 0.915525
vn 0.055483 0.115818 0.991699
vn -0.362712 0.173772 0.915525
vn 0.121128 0.042634 0.991699
vn -0.133580 0.379376 0.915525
vn 0.115818 -0.055483 0.991699
vn 0.173772 0.362712 0.915525
vn -0.055483 -0.115818 0.991699
vn 0.379376 0.133580 0.915525
vn -0.121128 -0.042634 0.991699
vn 0.362712 -0.173772 0.915525
vn -0.115818 0.055483 0.991699
vn -0.113956 0.059389 0.991699
vn -0.101444 -0.045839 0.993774
vn -0.059206 -0.122196 0.990722
vn 0.042634 -0.121128 0.991699
vn 0.045564 -0.127537 0.990753
vn 0.113926 -0.059389 0.991699
vn 0.101444 0.045839 0.993774
vn 0.063143 0.104923 0.992462
vn 0.068606 0.161412 0.984466
vn 0.193793 0.049898 0.979766
vn 0.181921 -0.066347 0.981048
vn 0.053652 -0.156194 0.986236
vn -0.070589 -0.149876 0.986175
vn -0.193945 -0.049257 0.979766
vn -0.181951 0.066836 0.981017
vn 0.378857 -0.181494 0.907468
vn 0.139531 -0.396252 0.907468
vn 0.396252 0.139531 0.907468
vn 0.181494 0.378857 0.907468
vn -0.139531 0.396252 0.907468
vn -0.378857 0.181494 0.907468
vn -0.396252 -0.139531 0.907468
vn -0.181494 -0.378857 0.907468
vn 0.021271 -0.060396 0.997925
vn 0.057741 -0.027650 0.997925
vn 0.060396 0.021271 0.997925
vn 0.027650 0.057741 0.997925
vn -0.021271 0.060396 0.997925
vn -0.057741 0.027650 0.997925
vn -0.060396 -0.021271 0.997925
vn -0.027650 -0.057741 0.997925
vn -0.049623 0.107883 0.992920
vn -0.051454 0.170049 0.984069
usemtl WWood
s off
f 5//1 8//1 4//1
f 4//2 91//2 1//2
f 92//3 8//3 5//3
f 93//4 5//4 1//4
f 94//5 4//5 8//5
f 95//2 2//2 1//2
f 91//2 95//2 1//2
f 91//2 4//2 96//2
f 96//2 4//2 3//2
f 7//3 8//3 98//3
f 98//3 8//3 92//3
f 92//3 5//3 97//3
f 97//3 5//3 6//3
f 6//6 5//6 100//6
f 100//6 5//6 93//6
f 99//7 93//7 1//7
f 2//7 99//7 1//7
f 3//5 4//5 101//5
f 101//5 4//5 94//5
f 94//8 8//8 102//8
f 102//9 8//9 7//9
f 43//10 96//10 44//10
f 3//11 44//11 96//11
f 3//12 45//12 44//12
f 3//13 101//13 45//13
f 45//13 101//13 94//13
f 45//14 94//14 46//14
f 46//15 94//15 102//15
f 7//15 46//15 102//15
f 7//16 47//16 46//16
f 7//17 98//17 47//17
f 47//18 98//18 48//18
f 48//19 98//19 92//19
f 48//20 92//20 49//20
f 52//21 53//21 92//21
f 49//22 92//22 53//22
f 42//23 49//23 54//23
f 43//24 91//24 96//24
f 42//25 91//25 43//25
f 52//26 92//26 97//26
f 51//27 52//27 97//27
f 6//28 51//28 97//28
f 6//29 50//29 51//29
f 6//30 100//30 50//30
f 50//30 100//30 93//30
f 50//31 93//31 57//31
f 57//32 93//32 99//32
f 2//32 57//32 99//32
f 2//33 56//33 57//33
f 2//34 95//34 56//34
f 55//35 56//35 95//35
f 55//36 95//36 91//36
f 54//37 55//37 91//37
f 42//38 54//38 91//38
f 1//1 5//1 4//1
f 49//23 53//23 54//23
usemtl Speaker
s 1
f 9//39 10//40 24//41
f 17//42 9//39 25//43
f 17//42 12//44 9//39
f 12//44 11//45 10//40
f 13//46 14//47 11//45
f 17//42 13//46 12//44
f 17//42 16//48 13//46
f 16//48 15//49 14//47
f 18//50 19//51 16//48
f 17//42 18//50 16//48
f 17//42 21//52 18//50
f 21//52 20//53 18//50
f 22//54 23//55 21//52
f 17//42 22//54 21//52
f 17//42 25//43 22//54
f 25//43 24//41 22//54
f 26//56 33//57 41//58
f 33//57 32//59 34//60
f 32//59 31//61 35//62
f 31//61 30//63 36//64
f 30//63 29//65 38//66
f 29//65 28//67 39//68
f 28//67 27//69 40//70
f 27//69 26//56 41//58
f 40//70 41//58 43//71
f 39//68 40//70 44//72
f 38//66 39//68 45//73
f 37//74 38//66 46//75
f 36//64 37//74 46//75
f 35//62 36//64 47//76
f 34//60 35//62 48//77
f 41//58 34//60 49//78
f 58//58 65//60 50//79
f 65//60 64//62 51//80
f 64//62 63//64 52//81
f 63//64 62//74 53//82
f 62//74 61//66 53//82
f 61//66 60//68 54//83
f 60//68 59//70 55//84
f 59//70 58//58 56//85
f 72//86 73//87 58//58
f 71//88 72//86 59//70
f 70//89 71//88 60//68
f 69//90 70//89 61//66
f 68//91 69//90 63//64
f 67//92 68//91 63//64
f 66//93 67//92 64//62
f 73//87 66//93 58//58
f 74//43 75//94 77//54
f 82//42 74//43 77//54
f 82//42 77//54 78//52
f 77//54 76//95 78//52
f 78//52 79//96 81//50
f 82//42 78//52 81//50
f 82//42 81//50 83//48
f 81//50 80//97 83//48
f 83//48 84//98 85//99
f 82//42 83//48 86//46
f 82//42 86//46 87//44
f 86//46 85//99 88//100
f 87//44 88//100 89//101
f 82//42 87//44 90//39
f 82//42 90//39 74//43
f 90//39 89//101 75//94
f 25//43 9//39 24//41
f 9//39 12//44 10//40
f 12//44 13//46 11//45
f 13//46 16//48 14//47
f 19//51 15//49 16//48
f 20//53 19//51 18//50
f 23//55 20//53 21//52
f 24//41 23//55 22//54
f 33//57 34//60 41//58
f 32//59 35//62 34//60
f 31//61 36//64 35//62
f 30//63 37//74 36//64
f 37//74 30//63 38//66
f 38//66 29//65 39//68
f 39//68 28//67 40//70
f 40//70 27//69 41//58
f 41//58 42//102 43//71
f 40//70 43//71 44//72
f 39//68 44//72 45//73
f 38//66 45//73 46//75
f 47//76 36//64 46//75
f 48//77 35//62 47//76
f 49//78 34//60 48//77
f 42//102 41//58 49//78
f 57//103 58//58 50//79
f 50//79 65//60 51//80
f 51//80 64//62 52//81
f 52//81 63//64 53//82
f 61//66 54//83 53//82
f 60//68 55//84 54//83
f 59//70 56//85 55//84
f 58//58 57//103 56//85
f 59//70 72//86 58//58
f 60//68 71//88 59//70
f 61//66 70//89 60//68
f 62//74 69//90 61//66
f 69//90 62//74 63//64
f 64//62 67//92 63//64
f 65//60 66//93 64//62
f 66//93 65//60 58//58
f 75//94 76//95 77//54
f 76//95 79//96 78//52
f 79//96 80//97 81//50
f 80//97 84//98 83//48
f 86//46 83//48 85//99
f 87//44 86//46 88//100
f 90//39 87//44 89//101
f 74//43 90//39 75//94
usemtl Blackspekaer
f 23//55 24//41 26//56
f 20//53 23//55 27//69
f 19//51 20//53 28//67
f 15//49 19//51 30//63
f 14//47 15//49 31//61
f 11//45 14//47 32//59
f 10//40 11//45 33//57
f 24//41 10//40 26//56
f 75//94 89//101 66//93
f 89//101 88//100 66//93
f 88//100 85//99 67//92
f 85//99 84//98 68//91
f 84//98 80//97 70//89
f 80//97 79//96 70//89
f 79//96 76//95 72//86
f 76//95 75//94 73//87
f 27//69 23//55 26//56
f 28//67 20//53 27//69
f 29//65 19//51 28//67
f 19//51 29//65 30//63
f 15//49 30//63 31//61
f 14//47 31//61 32//59
f 11//45 32//59 33//57
f 10//40 33//57 26//56
f 73//87 75//94 66//93
f 88//100 67//92 66//93
f 85//99 68//91 67//92
f 84//98 69//90 68//91
f 69//90 84//98 70//89
f 79//96 71//88 70//89
f 71//88 79//96 72//86
f 72//86 76//95 73//87
