# Blender v2.66 (sub 1) OBJ File: 'tray.blend'
# www.blender.org
mtllib tray.mtl
o Cube
v -4.665736 -0.023695 3.412130
v -4.665736 -0.023695 -3.412130
v 4.665736 -0.023695 -3.412129
v 4.665734 -0.023695 3.412131
v -4.665738 -0.247937 3.412128
v -4.665733 -0.247937 -3.412132
v 4.665737 -0.247937 -3.412129
v 4.665735 -0.247937 3.412130
v -5.020813 0.382346 3.671804
v -5.020813 0.382346 -3.671804
v 5.020814 0.382346 -3.671803
v 5.020811 0.382346 3.671805
v -5.020815 0.120367 3.671802
v -5.020811 0.120367 -3.671806
v 5.020815 0.120367 -3.671803
v 5.020813 0.120367 3.671804
v -5.283556 0.396308 3.863952
v -5.283556 0.396308 -3.863952
v 5.283556 0.396308 -3.863951
v 5.283553 0.396308 3.863953
v -5.283558 0.106405 3.863950
v -5.283553 0.106405 -3.863954
v 5.283557 0.106405 -3.863950
v 5.283555 0.106405 3.863952
vn 0.000000 1.000000 0.000000
vn -0.000000 -1.000000 0.000000
vn -0.000000 -0.576231 0.817287
vn -0.000000 0.538770 0.842453
vn 0.000000 -0.576231 -0.817287
vn 0.752768 0.658285 0.000000
vn -0.053065 -0.998591 -0.000000
vn 0.000000 0.997370 -0.072472
vn 0.053065 -0.998591 0.000000
vn -0.053065 0.998591 -0.000000
vn -0.752769 0.658285 -0.000000
vn -0.719916 -0.694062 -0.000001
vn 0.000000 0.538771 -0.842452
vn 0.719915 -0.694062 0.000000
vn -1.000000 0.000008 0.000000
vn 0.000000 -0.000002 -1.000000
vn 1.000000 0.000007 0.000000
vn -0.000000 -0.000006 1.000000
vn 0.053065 0.998591 0.000000
vn -0.000000 -0.997370 0.072472
vn -0.000000 0.997370 0.072472
vn 0.000000 -0.997370 -0.072472
vn -0.000000 -0.576232 0.817286
vn -0.000000 0.538771 0.842452
vn 0.000000 -0.576231 -0.817286
vn -0.752768 0.658286 -0.000000
vn -0.719915 -0.694063 -0.000000
vn -1.000000 -0.000010 -0.000001
vn 0.000000 0.000007 -1.000000
vn 1.000000 0.000003 0.000000
vn -0.000000 -0.000004 1.000000
usemtl tray
s off
f 1//1 4//1 3//1
f 5//2 6//2 7//2
f 8//3 16//3 5//3
f 3//4 11//4 2//4
f 6//5 14//5 15//5
f 2//6 10//6 9//6
f 15//7 23//7 16//7
f 9//8 17//8 20//8
f 13//9 21//9 22//9
f 12//10 20//10 11//10
f 4//11 12//11 3//11
f 5//12 13//12 6//12
f 1//13 9//13 12//13
f 7//14 15//14 16//14
f 17//15 18//15 21//15
f 18//16 19//16 23//16
f 19//17 20//17 24//17
f 21//18 24//18 17//18
f 10//19 18//19 17//19
f 14//20 22//20 15//20
f 11//21 19//21 10//21
f 16//22 24//22 21//22
f 2//1 1//1 3//1
f 8//2 5//2 7//2
f 16//23 13//23 5//23
f 11//24 10//24 2//24
f 7//25 6//25 15//25
f 1//6 2//6 9//6
f 23//7 24//7 16//7
f 12//8 9//8 20//8
f 14//9 13//9 22//9
f 20//10 19//10 11//10
f 12//26 11//26 3//26
f 13//27 14//27 6//27
f 4//13 1//13 12//13
f 8//14 7//14 16//14
f 18//28 22//28 21//28
f 22//29 18//29 23//29
f 23//30 19//30 24//30
f 24//31 20//31 17//31
f 9//19 10//19 17//19
f 22//20 23//20 15//20
f 19//21 18//21 10//21
f 13//22 16//22 21//22
